<svg id="my-svg" width="100%" xmlns="http://www.w3.org/2000/svg" xmlns:xlink="http://www.w3.org/1999/xlink" class="flowchart" style="max-width: 556.234px; background-color: transparent;" viewBox="0 0 556.234375 845.90625" role="graphics-document document" aria-roledescription="flowchart-v2"><style>#my-svg{font-family:"trebuchet ms",verdana,arial,sans-serif;font-size:16px;fill:#333;}@keyframes edge-animation-frame{from{stroke-dashoffset:0;}}@keyframes dash{to{stroke-dashoffset:0;}}#my-svg .edge-animation-slow{stroke-dasharray:9,5!important;stroke-dashoffset:900;animation:dash 50s linear infinite;stroke-linecap:round;}#my-svg .edge-animation-fast{stroke-dasharray:9,5!important;stroke-dashoffset:900;animation:dash 20s linear infinite;stroke-linecap:round;}#my-svg .error-icon{fill:#552222;}#my-svg .error-text{fill:#552222;stroke:#552222;}#my-svg .edge-thickness-normal{stroke-width:1px;}#my-svg .edge-thickness-thick{stroke-width:3.5px;}#my-svg .edge-pattern-solid{stroke-dasharray:0;}#my-svg .edge-thickness-invisible{stroke-width:0;fill:none;}#my-svg .edge-pattern-dashed{stroke-dasharray:3;}#my-svg .edge-pattern-dotted{stroke-dasharray:2;}#my-svg .marker{fill:#333333;stroke:#333333;}#my-svg .marker.cross{stroke:#333333;}#my-svg svg{font-family:"trebuchet ms",verdana,arial,sans-serif;font-size:16px;}#my-svg p{margin:0;}#my-svg .label{font-family:"trebuchet ms",verdana,arial,sans-serif;color:#333;}#my-svg .cluster-label text{fill:#333;}#my-svg .cluster-label span{color:#333;}#my-svg .cluster-label span p{background-color:transparent;}#my-svg .label text,#my-svg span{fill:#333;color:#333;}#my-svg .node rect,#my-svg .node circle,#my-svg .node ellipse,#my-svg .node polygon,#my-svg .node path{fill:#ECECFF;stroke:#9370DB;stroke-width:1px;}#my-svg .rough-node .label text,#my-svg .node .label text,#my-svg .image-shape .label,#my-svg .icon-shape .label{text-anchor:middle;}#my-svg .node .katex path{fill:#000;stroke:#000;stroke-width:1px;}#my-svg .rough-node .label,#my-svg .node .label,#my-svg .image-shape .label,#my-svg .icon-shape .label{text-align:center;}#my-svg .node.clickable{cursor:pointer;}#my-svg .root .anchor path{fill:#333333!important;stroke-width:0;stroke:#333333;}#my-svg .arrowheadPath{fill:#333333;}#my-svg .edgePath .path{stroke:#333333;stroke-width:1px;}#my-svg .flowchart-link{stroke:#333333;fill:none;}#my-svg .edgeLabel{background-color:rgba(232,232,232, 0.8);text-align:center;}#my-svg .edgeLabel p{background-color:rgba(232,232,232, 0.8);}#my-svg .edgeLabel rect{opacity:0.5;background-color:rgba(232,232,232, 0.8);fill:rgba(232,232,232, 0.8);}#my-svg .labelBkg{background-color:rgba(232, 232, 232, 0.5);}#my-svg .cluster rect{fill:#ffffde;stroke:#aaaa33;stroke-width:1px;}#my-svg .cluster text{fill:#333;}#my-svg .cluster span{color:#333;}#my-svg div.mermaidTooltip{position:absolute;text-align:center;max-width:200px;padding:2px;font-family:"trebuchet ms",verdana,arial,sans-serif;font-size:12px;background:hsl(80, 100%, 96.2745098039%);border:1px solid #aaaa33;border-radius:2px;pointer-events:none;z-index:100;}#my-svg .flowchartTitleText{text-anchor:middle;font-size:18px;fill:#333;}#my-svg rect.text{fill:none;stroke-width:0;}#my-svg .icon-shape,#my-svg .image-shape{background-color:rgba(232,232,232, 0.8);text-align:center;}#my-svg .icon-shape p,#my-svg .image-shape p{background-color:rgba(232,232,232, 0.8);padding:2px;}#my-svg .icon-shape .label rect,#my-svg .image-shape .label rect{opacity:0.5;background-color:rgba(232,232,232, 0.8);fill:rgba(232,232,232, 0.8);}#my-svg .label-icon{display:inline-block;height:1em;overflow:visible;vertical-align:-0.125em;}#my-svg .node .label-icon path{fill:currentColor;stroke:revert;stroke-width:revert;}#my-svg .node .neo-node{stroke:#9370DB;}#my-svg [data-look="neo"].node rect,#my-svg [data-look="neo"].cluster rect,#my-svg [data-look="neo"].node polygon{stroke:#9370DB;filter:drop-shadow(1px 2px 2px rgba(185, 185, 185, 1));}#my-svg [data-look="neo"].node path{stroke:#9370DB;stroke-width:1px;}#my-svg [data-look="neo"].node .outer-path{filter:drop-shadow(1px 2px 2px rgba(185, 185, 185, 1));}#my-svg [data-look="neo"].node .neo-line path{stroke:#9370DB;filter:none;}#my-svg [data-look="neo"].node circle{stroke:#9370DB;filter:drop-shadow(1px 2px 2px rgba(185, 185, 185, 1));}#my-svg [data-look="neo"].node circle .state-start{fill:#000000;}#my-svg [data-look="neo"].icon-shape .icon{fill:#9370DB;filter:drop-shadow(1px 2px 2px rgba(185, 185, 185, 1));}#my-svg [data-look="neo"].icon-shape .icon-neo path{stroke:#9370DB;filter:drop-shadow(1px 2px 2px rgba(185, 185, 185, 1));}#my-svg :root{--mermaid-font-family:"trebuchet ms",verdana,arial,sans-serif;}#my-svg .arch&gt;*{fill:#4A90D9!important;stroke:#1f3a5a!important;color:#fff!important;}#my-svg .arch span{fill:#4A90D9!important;stroke:#1f3a5a!important;color:#fff!important;}#my-svg .arch tspan{fill:#fff!important;}#my-svg .dev&gt;*{fill:#50C878!important;stroke:#1b5e20!important;color:#111!important;}#my-svg .dev span{fill:#50C878!important;stroke:#1b5e20!important;color:#111!important;}#my-svg .dev tspan{fill:#111!important;}#my-svg .doc&gt;*{fill:#9B59B6!important;stroke:#4a235a!important;color:#fff!important;}#my-svg .doc span{fill:#9B59B6!important;stroke:#4a235a!important;color:#fff!important;}#my-svg .doc tspan{fill:#fff!important;}#my-svg .qa&gt;*{fill:#E67E22!important;stroke:#7e3d00!important;color:#111!important;}#my-svg .qa span{fill:#E67E22!important;stroke:#7e3d00!important;color:#111!important;}#my-svg .qa tspan{fill:#111!important;}#my-svg .km&gt;*{fill:#F39C12!important;stroke:#7a4f00!important;color:#111!important;stroke-width:3px!important;}#my-svg .km span{fill:#F39C12!important;stroke:#7a4f00!important;color:#111!important;stroke-width:3px!important;}#my-svg .km tspan{fill:#111!important;}#my-svg .file&gt;*{fill:#95A5A6!important;stroke:#5d6d73!important;color:#111!important;}#my-svg .file span{fill:#95A5A6!important;stroke:#5d6d73!important;color:#111!important;}#my-svg .file tspan{fill:#111!important;}</style><g><marker id="my-svg_flowchart-v2-pointEnd" class="marker flowchart-v2" viewBox="0 0 10 10" refX="5" refY="5" markerUnits="userSpaceOnUse" markerWidth="8" markerHeight="8" orient="auto"><path d="M 0 0 L 10 5 L 0 10 z" class="arrowMarkerPath" style="stroke-width: 1; stroke-dasharray: 1, 0;"/></marker><marker id="my-svg_flowchart-v2-pointStart" class="marker flowchart-v2" viewBox="0 0 10 10" refX="4.5" refY="5" markerUnits="userSpaceOnUse" markerWidth="8" markerHeight="8" orient="auto"><path d="M 0 5 L 10 10 L 10 0 z" class="arrowMarkerPath" style="stroke-width: 1; stroke-dasharray: 1, 0;"/></marker><marker id="my-svg_flowchart-v2-pointEnd-margin" class="marker flowchart-v2" viewBox="0 0 11.5 14" refX="11.5" refY="7" markerUnits="userSpaceOnUse" markerWidth="10.5" markerHeight="14" orient="auto"><path d="M 0 0 L 11.5 7 L 0 14 z" class="arrowMarkerPath" style="stroke-width: 0; stroke-dasharray: 1, 0;"/></marker><marker id="my-svg_flowchart-v2-pointStart-margin" class="marker flowchart-v2" viewBox="0 0 11.5 14" refX="1" refY="7" markerUnits="userSpaceOnUse" markerWidth="11.5" markerHeight="14" orient="auto"><polygon points="0,7 11.5,14 11.5,0" class="arrowMarkerPath" style="stroke-width: 0; stroke-dasharray: 1, 0;"/></marker><marker id="my-svg_flowchart-v2-circleEnd" class="marker flowchart-v2" viewBox="0 0 10 10" refX="11" refY="5" markerUnits="userSpaceOnUse" markerWidth="11" markerHeight="11" orient="auto"><circle cx="5" cy="5" r="5" class="arrowMarkerPath" style="stroke-width: 1; stroke-dasharray: 1, 0;"/></marker><marker id="my-svg_flowchart-v2-circleStart" class="marker flowchart-v2" viewBox="0 0 10 10" refX="-1" refY="5" markerUnits="userSpaceOnUse" markerWidth="11" markerHeight="11" orient="auto"><circle cx="5" cy="5" r="5" class="arrowMarkerPath" style="stroke-width: 1; stroke-dasharray: 1, 0;"/></marker><marker id="my-svg_flowchart-v2-circleEnd-margin" class="marker flowchart-v2" viewBox="0 0 10 10" refY="5" refX="12.25" markerUnits="userSpaceOnUse" markerWidth="14" markerHeight="14" orient="auto"><circle cx="5" cy="5" r="5" class="arrowMarkerPath" style="stroke-width: 0; stroke-dasharray: 1, 0;"/></marker><marker id="my-svg_flowchart-v2-circleStart-margin" class="marker flowchart-v2" viewBox="0 0 10 10" refX="-2" refY="5" markerUnits="userSpaceOnUse" markerWidth="14" markerHeight="14" orient="auto"><circle cx="5" cy="5" r="5" class="arrowMarkerPath" style="stroke-width: 0; stroke-dasharray: 1, 0;"/></marker><marker id="my-svg_flowchart-v2-crossEnd" class="marker cross flowchart-v2" viewBox="0 0 11 11" refX="12" refY="5.2" markerUnits="userSpaceOnUse" markerWidth="11" markerHeight="11" orient="auto"><path d="M 1,1 l 9,9 M 10,1 l -9,9" class="arrowMarkerPath" style="stroke-width: 2; stroke-dasharray: 1, 0;"/></marker><marker id="my-svg_flowchart-v2-crossStart" class="marker cross flowchart-v2" viewBox="0 0 11 11" refX="-1" refY="5.2" markerUnits="userSpaceOnUse" markerWidth="11" markerHeight="11" orient="auto"><path d="M 1,1 l 9,9 M 10,1 l -9,9" class="arrowMarkerPath" style="stroke-width: 2; stroke-dasharray: 1, 0;"/></marker><marker id="my-svg_flowchart-v2-crossEnd-margin" class="marker cross flowchart-v2" viewBox="0 0 15 15" refX="17.7" refY="7.5" markerUnits="userSpaceOnUse" markerWidth="12" markerHeight="12" orient="auto"><path d="M 1,1 L 14,14 M 1,14 L 14,1" class="arrowMarkerPath" style="stroke-width: 2.5;"/></marker><marker id="my-svg_flowchart-v2-crossStart-margin" class="marker cross flowchart-v2" viewBox="0 0 15 15" refX="-3.5" refY="7.5" markerUnits="userSpaceOnUse" markerWidth="12" markerHeight="12" orient="auto"><path d="M 1,1 L 14,14 M 1,14 L 14,1" class="arrowMarkerPath" style="stroke-width: 2.5; stroke-dasharray: 1, 0;"/></marker><g class="root"><g class="clusters"/><g class="edgePaths"><path d="M448.344,386.453L448.26,449.029C448.177,511.604,448.01,636.755,448.002,704.914C447.993,773.073,448.142,784.24,448.216,789.823L448.29,795.407" id="my-svg-L_s1_kn_0" class="edge-thickness-normal edge-pattern-dotted edge-thickness-normal edge-pattern-solid flowchart-link" style=";" data-edge="true" data-et="edge" data-id="L_s1_kn_0" data-points="W3sieCI6NDQ4LjM0Mzc1LCJ5IjozODYuNDUzMTI1fSx7IngiOjQ0Ny44NDM3NSwieSI6NzYxLjkwNjI1fSx7IngiOjQ0OC4zNDM3NSwieSI6Nzk5LjQwNjI1fV0=" data-look="classic" marker-end="url(#my-svg_flowchart-v2-pointEnd)"/></g><g class="edgeLabels"><g class="edgeLabel" transform="translate(447.84375, 761.90625)"><g class="label" data-id="L_s1_kn_0" transform="translate(-54.6953125, -12)"><foreignObject width="109.390625" height="24"><div xmlns="http://www.w3.org/1999/xhtml" class="labelBkg" style="display: table-cell; white-space: nowrap; line-height: 1.5; max-width: 200px; text-align: center;"><span class="edgeLabel"><p>knowledge/ 参照</p></span></div></foreignObject></g></g></g><g class="nodes"><g class="root" transform="translate(0, 0)"><g class="clusters"><g class="cluster" id="my-svg-LEG" data-look="classic"><rect style="" x="8" y="8" width="289.453125" height="716.90625"/><g class="cluster-label" transform="translate(140.7265625, 8)"><foreignObject width="24" height="24"><div xmlns="http://www.w3.org/1999/xhtml" style="display: table-cell; white-space: nowrap; line-height: 1.5;"><span class="nodeLabel"><p>凡例</p></span></div></foreignObject></g></g></g><g class="edgePaths"/><g class="edgeLabels"/><g class="nodes"><g class="node default arch" id="my-svg-flowchart-la-4" data-look="classic" transform="translate(152.7265625, 62.5)"><g class="basic label-container outer-path"><path d="M-49.546875 -19.5 C-28.368776008283213 -19.5, -7.1906770165664256 -19.5, 49.546875 -19.5 C49.546875 -19.5, 49.546875 -19.5, 49.546875 -19.5 C49.98485274786006 -19.485954906098097, 50.42283049572012 -19.471909812196195, 50.7962442896239 -19.45993515863156 C51.191519128823415 -19.421803470281528, 51.58679396802293 -19.383671781931493, 52.040479652847864 -19.3399052695533 C52.406848433829325 -19.280673606276547, 52.773217214810785 -19.221441942999796, 53.27446825967676 -19.140403561325776 C53.62892509342752 -19.05950110206917, 53.98338192717828 -18.978598642812564, 54.49313938623539 -18.862249829261074 C54.80846729049793 -18.768662162465898, 55.12379519476047 -18.675074495670724, 55.691485251460605 -18.50658706670804 C55.95017087458776 -18.41138836613356, 56.20885649771491 -18.31618966555908, 56.8645815951478 -18.074876768247425 C57.187790749507656 -17.93180166327123, 57.510999903867514 -17.788726558295032, 58.00760791279238 -17.568892924097174 C58.23263527059516 -17.451496295668367, 58.45766262839794 -17.334099667239556, 59.11586726407678 -16.990714730406097 C59.47983336670398 -16.770076340091258, 59.843799469331174 -16.54943794977642, 60.1848055736057 -16.342718045390892 C60.4884647154686 -16.130898573219717, 60.79212385733151 -15.919079101048544, 61.21003034457871 -15.627565626425154 C61.44570708428393 -15.439619698131677, 61.681383823989144 -15.2516737698382, 62.187328708501866 -14.848196188198123 C62.544670977700974 -14.523667394069832, 62.90201324690009 -14.199138599941541, 63.11268473676799 -14.007812326905688 C63.419741535957584 -13.690750971910377, 63.72679833514718 -13.373689616915067, 63.98229594296865 -13.10986736009568 C64.27629736850379 -12.764516556507072, 64.57029879403893 -12.419165752918463, 64.79258890812658 -12.158051136245305 C64.95085965336887 -11.945982756382154, 65.10913039861114 -11.733914376519005, 65.54023396464063 -11.156274872382312 C65.68890950499971 -10.927869317418153, 65.8375850453588 -10.699463762453997, 66.22215887860425 -10.108655082055241 C66.37593946898994 -9.83560207185211, 66.52972005937562 -9.562549061648976, 66.8355614742735 -9.019496659696287 C66.99253678427243 -8.693534069749933, 67.14951209427136 -8.36757147980358, 67.37792114880834 -7.893275190886684 C67.52401213888815 -7.532427620912403, 67.67010312896797 -7.171580050938122, 67.84700922997033 -6.734618561215508 C67.99384704999119 -6.292366442742154, 68.14068487001204 -5.850114324268802, 68.24089813421489 -5.548287939305138 C68.32537503185611 -5.2261409160801, 68.40985192949734 -4.903993892855062, 68.55796928754556 -4.339158212148133 C68.64131102299484 -3.911216014898113, 68.72465275844411 -3.483273817648093, 68.79691977658177 -3.1121979531509023 C68.84374620843212 -2.7490213946444593, 68.89057264028247 -2.385844836138016, 68.95676770250937 -1.872449005199798 C68.98183587457642 -1.4819919905911951, 69.00690404664347 -1.0915349759825923, 69.03685621591342 -0.6250057626472757 C69.03685621591342 -0.1376589991976973, 69.03685621591342 0.3496877642518811, 69.03685621591342 0.625005762647271 C69.01952945892955 0.8948839885774594, 69.00220270194569 1.1647622145076477, 68.95676770250937 1.8724490051997846 C68.92298798961671 2.13443778783642, 68.88920827672405 2.396426570473055, 68.79691977658177 3.1121979531508885 C68.74530296328041 3.377239380236018, 68.69368614997906 3.642280807321148, 68.55796928754556 4.339158212148129 C68.4349490087151 4.808287852654808, 68.31192872988463 5.277417493161487, 68.24089813421489 5.548287939305125 C68.08446875920195 6.019428293207844, 67.92803938418903 6.490568647110564, 67.84700922997033 6.734618561215495 C67.69017555732722 7.122000764816761, 67.5333418846841 7.509382968418027, 67.37792114880834 7.893275190886679 C67.16868201090068 8.327764737752275, 66.95944287299304 8.762254284617871, 66.8355614742735 9.019496659696284 C66.65328536027472 9.34314635755912, 66.47100924627594 9.666796055421957, 66.22215887860425 10.108655082055236 C66.04287620043357 10.38408141986531, 65.86359352226289 10.659507757675383, 65.54023396464065 11.156274872382301 C65.26876254356314 11.520021845070925, 64.99729112248563 11.883768817759549, 64.79258890812659 12.158051136245302 C64.62354842467566 12.356615706782751, 64.45450794122473 12.5551802773202, 63.98229594296866 13.10986736009567 C63.73853463808956 13.361570920558664, 63.49477333321047 13.613274481021657, 63.11268473676799 14.007812326905684 C62.765957287182964 14.322701022713206, 62.41922983759793 14.637589718520726, 62.18732870850189 14.848196188198111 C61.98389538100231 15.010428853290819, 61.780462053502745 15.172661518383524, 61.21003034457871 15.627565626425152 C60.85107879041197 15.877954691849537, 60.492127236245224 16.12834375727392, 60.18480557360571 16.34271804539089 C59.91280374886848 16.507607150006745, 59.640801924131246 16.6724962546226, 59.11586726407678 16.990714730406093 C58.73381100201725 17.19003323760384, 58.351754739957705 17.389351744801587, 58.00760791279239 17.56889292409717 C57.75452718637839 17.680924254307637, 57.50144645996439 17.7929555845181, 56.864581595147804 18.07487676824742 C56.488630880710396 18.213230106410695, 56.11268016627299 18.35158344457397, 55.69148525146062 18.506587066708033 C55.22998965451152 18.643556537442706, 54.76849405756242 18.78052600817738, 54.49313938623541 18.86224982926107 C54.090048905031416 18.954252601184667, 53.68695842382741 19.046255373108266, 53.274468259676766 19.140403561325773 C53.008043356458614 19.183477073522102, 52.74161845324046 19.226550585718428, 52.04047965284788 19.3399052695533 C51.7641284817694 19.36656453466633, 51.48777731069092 19.393223799779364, 50.7962442896239 19.45993515863156 C50.32750936679032 19.47496657526965, 49.858774443956754 19.489997991907746, 49.54687500000001 19.5 C49.54687500000001 19.5, 49.546875 19.5, 49.546875 19.5 C22.232180207273778 19.5, -5.082514585452444 19.5, -49.54687499999999 19.5 C-50.04120842823883 19.48414768911803, -50.535541856477664 19.468295378236057, -50.79624428962389 19.45993515863156 C-51.09211941820958 19.4313924408188, -51.38799454679527 19.402849723006042, -52.04047965284787 19.3399052695533 C-52.362610747697396 19.287825612301976, -52.68474184254693 19.235745955050657, -53.27446825967676 19.140403561325773 C-53.70188673692601 19.042848083059855, -54.12930521417526 18.94529260479394, -54.493139386235384 18.862249829261074 C-54.841456675412275 18.758871086188133, -55.18977396458917 18.655492343115196, -55.69148525146059 18.506587066708043 C-56.15811908563096 18.33486150221747, -56.624752919801324 18.1631359377269, -56.8645815951478 18.074876768247425 C-57.19898586852447 17.926845916173892, -57.53339014190114 17.77881506410036, -58.00760791279238 17.568892924097174 C-58.39591648969123 17.36631258825256, -58.78422506659008 17.163732252407943, -59.11586726407678 16.990714730406097 C-59.34306231128375 16.852987757642936, -59.57025735849072 16.715260784879774, -60.184805573605686 16.3427180453909 C-60.41825999802066 16.179870344998164, -60.65171442243564 16.01702264460543, -61.21003034457871 15.627565626425156 C-61.49815987620885 15.397789992398968, -61.78628940783899 15.16801435837278, -62.187328708501866 14.848196188198125 C-62.37255781196282 14.679976017328402, -62.557786915423776 14.51175584645868, -63.112684736767974 14.007812326905697 C-63.37654146723875 13.73535858965417, -63.64039819770953 13.462904852402644, -63.982295942968655 13.109867360095677 C-64.2006799811078 12.853341042493637, -64.41906401924695 12.596814724891596, -64.79258890812658 12.158051136245307 C-65.00042765621399 11.879566148307642, -65.20826640430141 11.60108116036998, -65.54023396464063 11.156274872382316 C-65.76254272755189 10.814748914289252, -65.98485149046313 10.473222956196189, -66.22215887860425 10.108655082055249 C-66.46404186799498 9.679167341083378, -66.7059248573857 9.249679600111506, -66.8355614742735 9.019496659696289 C-67.04211695426572 8.590579785913167, -67.24867243425795 8.161662912130044, -67.37792114880834 7.893275190886686 C-67.50737646100852 7.5735180669040565, -67.6368317732087 7.253760942921428, -67.84700922997033 6.73461856121551 C-67.99716623404385 6.282369589215702, -68.14732323811737 5.8301206172158935, -68.24089813421489 5.5482879393051325 C-68.3126962957294 5.274490431930278, -68.3844944572439 5.000692924555423, -68.55796928754556 4.339158212148136 C-68.63217594278046 3.958122721099039, -68.70638259801537 3.5770872300499423, -68.79691977658177 3.112197953150904 C-68.83992262122311 2.778676381984932, -68.88292546586443 2.44515481081896, -68.95676770250937 1.872449005199809 C-68.98810158637977 1.3843984716624254, -69.01943547025017 0.8963479381250415, -69.03685621591342 0.6250057626472781 C-69.03685621591342 0.2600860722767457, -69.03685621591342 -0.10483361809378677, -69.03685621591342 -0.6250057626472687 C-69.01656407346798 -0.9410722607575921, -68.99627193102253 -1.2571387588679155, -68.95676770250937 -1.8724490051997822 C-68.90800390540288 -2.250651386056776, -68.85924010829639 -2.6288537669137697, -68.79691977658177 -3.112197953150895 C-68.74069736906412 -3.4008881331440266, -68.68447496154646 -3.689578313137158, -68.55796928754556 -4.339158212148126 C-68.48674924514917 -4.6107511007671755, -68.4155292027528 -4.882343989386225, -68.24089813421489 -5.548287939305123 C-68.16045854977786 -5.790559151322148, -68.08001896534084 -6.0328303633391736, -67.84700922997033 -6.734618561215485 C-67.73152191843808 -7.019874453495429, -67.61603460690581 -7.305130345775375, -67.37792114880834 -7.893275190886676 C-67.26366491133757 -8.130530712686582, -67.1494086738668 -8.367786234486488, -66.8355614742735 -9.019496659696282 C-66.67062401481938 -9.312359820685927, -66.50568655536524 -9.605222981675572, -66.22215887860425 -10.108655082055243 C-65.99103617203055 -10.463721624489093, -65.75991346545685 -10.818788166922943, -65.54023396464063 -11.156274872382308 C-65.25525666718056 -11.53811848901292, -64.9702793697205 -11.919962105643533, -64.79258890812659 -12.158051136245302 C-64.48536489022092 -12.518933949219152, -64.17814087231524 -12.879816762193002, -63.98229594296866 -13.10986736009567 C-63.751646121663875 -13.348032237295365, -63.52099630035909 -13.58619711449506, -63.112684736767996 -14.007812326905677 C-62.744890351987166 -14.341833455857465, -62.37709596720634 -14.675854584809253, -62.18732870850189 -14.848196188198107 C-61.812282296628155 -15.14728572126324, -61.43723588475442 -15.446375254328373, -61.21003034457872 -15.627565626425149 C-60.81161722685275 -15.905481370324889, -60.413204109126795 -16.18339711422463, -60.184805573605715 -16.342718045390885 C-59.79482640322144 -16.579125710249816, -59.40484723283717 -16.81553337510875, -59.11586726407679 -16.99071473040609 C-58.7193039484437 -17.197601558160944, -58.32274063281062 -17.404488385915798, -58.00760791279239 -17.56889292409717 C-57.71585311039638 -17.698044120519167, -57.424098308000374 -17.827195316941168, -56.864581595147804 -18.07487676824742 C-56.58724326036424 -18.176939839135237, -56.30990492558067 -18.279002910023053, -55.69148525146062 -18.506587066708033 C-55.24320103924537 -18.63963546780167, -54.79491682703013 -18.772683868895307, -54.49313938623541 -18.862249829261067 C-54.12704584897088 -18.945808290158105, -53.76095231170635 -19.029366751055143, -53.274468259676766 -19.140403561325773 C-52.78805534571628 -19.21904302906642, -52.30164243175579 -19.297682496807067, -52.04047965284788 -19.3399052695533 C-51.720723789855676 -19.370751733093467, -51.40096792686348 -19.401598196633635, -50.7962442896239 -19.45993515863156 C-50.45255862973075 -19.470956488800777, -50.1088729698376 -19.481977818969995, -49.54687500000001 -19.5 C-49.54687500000001 -19.5, -49.546875 -19.5, -49.546875 -19.5" stroke="none" stroke-width="0" fill="#4A90D9" style="fill:#4A90D9 !important;stroke:#1f3a5a !important"/><path d="M-49.546875 -19.5 C-28.917811421629136 -19.5, -8.288747843258271 -19.5, 49.546875 -19.5 M-49.546875 -19.5 C-22.784281947794216 -19.5, 3.978311104411567 -19.5, 49.546875 -19.5 M49.546875 -19.5 C49.546875 -19.5, 49.546875 -19.5, 49.546875 -19.5 M49.546875 -19.5 C49.546875 -19.5, 49.546875 -19.5, 49.546875 -19.5 M49.546875 -19.5 C49.93593727646026 -19.4875235300577, 50.32499955292051 -19.4750470601154, 50.7962442896239 -19.45993515863156 M49.546875 -19.5 C49.81555357725077 -19.491384000978695, 50.08423215450154 -19.482768001957385, 50.7962442896239 -19.45993515863156 M50.7962442896239 -19.45993515863156 C51.174684220966434 -19.423427513595552, 51.55312415230896 -19.386919868559545, 52.040479652847864 -19.3399052695533 M50.7962442896239 -19.45993515863156 C51.12853607934882 -19.42787936931614, 51.460827869073746 -19.395823580000723, 52.040479652847864 -19.3399052695533 M52.040479652847864 -19.3399052695533 C52.33170434432581 -19.292822319916358, 52.62292903580375 -19.24573937027942, 53.27446825967676 -19.140403561325776 M52.040479652847864 -19.3399052695533 C52.46382659150095 -19.271461819616412, 52.88717353015404 -19.203018369679523, 53.27446825967676 -19.140403561325776 M53.27446825967676 -19.140403561325776 C53.53572120125523 -19.080774282245258, 53.7969741428337 -19.021145003164744, 54.49313938623539 -18.862249829261074 M53.27446825967676 -19.140403561325776 C53.694680274100065 -19.044492911173315, 54.11489228852338 -18.948582261020857, 54.49313938623539 -18.862249829261074 M54.49313938623539 -18.862249829261074 C54.74504876493356 -18.787484447962772, 54.99695814363172 -18.71271906666447, 55.691485251460605 -18.50658706670804 M54.49313938623539 -18.862249829261074 C54.78676378611709 -18.775103648642112, 55.0803881859988 -18.68795746802315, 55.691485251460605 -18.50658706670804 M55.691485251460605 -18.50658706670804 C55.92742554219177 -18.419758858710832, 56.16336583292293 -18.332930650713624, 56.8645815951478 -18.074876768247425 M55.691485251460605 -18.50658706670804 C56.14835331166216 -18.338455397311815, 56.60522137186371 -18.17032372791559, 56.8645815951478 -18.074876768247425 M56.8645815951478 -18.074876768247425 C57.09666856657698 -17.972138750611123, 57.32875553800616 -17.869400732974817, 58.00760791279238 -17.568892924097174 M56.8645815951478 -18.074876768247425 C57.18031763128031 -17.935109791028296, 57.49605366741283 -17.79534281380917, 58.00760791279238 -17.568892924097174 M58.00760791279238 -17.568892924097174 C58.368782405230206 -17.380468422735664, 58.72995689766804 -17.19204392137415, 59.11586726407678 -16.990714730406097 M58.00760791279238 -17.568892924097174 C58.29986800190079 -17.41642102281084, 58.592128091009194 -17.263949121524504, 59.11586726407678 -16.990714730406097 M59.11586726407678 -16.990714730406097 C59.458849435871045 -16.782796922277445, 59.80183160766531 -16.574879114148796, 60.1848055736057 -16.342718045390892 M59.11586726407678 -16.990714730406097 C59.43135942012324 -16.799461531373026, 59.74685157616971 -16.608208332339956, 60.1848055736057 -16.342718045390892 M60.1848055736057 -16.342718045390892 C60.43524787158645 -16.16802033979187, 60.685690169567195 -15.993322634192845, 61.21003034457871 -15.627565626425154 M60.1848055736057 -16.342718045390892 C60.455940720871176 -16.15358590390985, 60.72707586813665 -15.964453762428809, 61.21003034457871 -15.627565626425154 M61.21003034457871 -15.627565626425154 C61.49068187958225 -15.403753495710834, 61.77133341458578 -15.179941364996512, 62.187328708501866 -14.848196188198123 M61.21003034457871 -15.627565626425154 C61.506336717917605 -15.391269178731132, 61.80264309125649 -15.154972731037113, 62.187328708501866 -14.848196188198123 M62.187328708501866 -14.848196188198123 C62.429865670622895 -14.627930536376171, 62.67240263274393 -14.407664884554219, 63.11268473676799 -14.007812326905688 M62.187328708501866 -14.848196188198123 C62.44740188980454 -14.61200460609834, 62.70747507110721 -14.375813023998557, 63.11268473676799 -14.007812326905688 M63.11268473676799 -14.007812326905688 C63.45908001339882 -13.650130764203237, 63.805475290029655 -13.292449201500785, 63.98229594296865 -13.10986736009568 M63.11268473676799 -14.007812326905688 C63.33169518840763 -13.781666054495275, 63.55070564004727 -13.555519782084861, 63.98229594296865 -13.10986736009568 M63.98229594296865 -13.10986736009568 C64.1578525797841 -12.903648545036617, 64.33340921659956 -12.697429729977555, 64.79258890812658 -12.158051136245305 M63.98229594296865 -13.10986736009568 C64.19370321328043 -12.86153635097301, 64.4051104835922 -12.613205341850339, 64.79258890812658 -12.158051136245305 M64.79258890812658 -12.158051136245305 C65.0253260076004 -11.84620462573632, 65.25806310707424 -11.534358115227333, 65.54023396464063 -11.156274872382312 M64.79258890812658 -12.158051136245305 C65.00570174576004 -11.872499348795392, 65.21881458339348 -11.586947561345479, 65.54023396464063 -11.156274872382312 M65.54023396464063 -11.156274872382312 C65.70897840660817 -10.897038095292931, 65.87772284857569 -10.637801318203552, 66.22215887860425 -10.108655082055241 M65.54023396464063 -11.156274872382312 C65.68697577628792 -10.930840043998336, 65.83371758793521 -10.705405215614357, 66.22215887860425 -10.108655082055241 M66.22215887860425 -10.108655082055241 C66.36870189295361 -9.848453120988657, 66.51524490730297 -9.58825115992207, 66.8355614742735 -9.019496659696287 M66.22215887860425 -10.108655082055241 C66.45690866940532 -9.691833057493968, 66.69165846020641 -9.275011032932692, 66.8355614742735 -9.019496659696287 M66.8355614742735 -9.019496659696287 C66.96014245616385 -8.760801585194992, 67.0847234380542 -8.502106510693697, 67.37792114880834 -7.893275190886684 M66.8355614742735 -9.019496659696287 C67.04539674260721 -8.58376923524584, 67.25523201094092 -8.148041810795394, 67.37792114880834 -7.893275190886684 M67.37792114880834 -7.893275190886684 C67.5555199509739 -7.45460271589848, 67.73311875313948 -7.015930240910276, 67.84700922997033 -6.734618561215508 M67.37792114880834 -7.893275190886684 C67.49101502986011 -7.613931118167364, 67.60410891091189 -7.334587045448043, 67.84700922997033 -6.734618561215508 M67.84700922997033 -6.734618561215508 C67.98751794762823 -6.311428690653816, 68.12802666528616 -5.888238820092125, 68.24089813421489 -5.548287939305138 M67.84700922997033 -6.734618561215508 C67.96095682951567 -6.391426546469412, 68.07490442906102 -6.048234531723315, 68.24089813421489 -5.548287939305138 M68.24089813421489 -5.548287939305138 C68.33385005780836 -5.193821969024687, 68.42680198140184 -4.839355998744237, 68.55796928754556 -4.339158212148133 M68.24089813421489 -5.548287939305138 C68.33407392482334 -5.19296826707198, 68.4272497154318 -4.837648594838823, 68.55796928754556 -4.339158212148133 M68.55796928754556 -4.339158212148133 C68.6148614820139 -4.047028817722812, 68.67175367648223 -3.7548994232974913, 68.79691977658177 -3.1121979531509023 M68.55796928754556 -4.339158212148133 C68.64550670925901 -3.8896720526901905, 68.73304413097246 -3.4401858932322478, 68.79691977658177 -3.1121979531509023 M68.79691977658177 -3.1121979531509023 C68.85401600226575 -2.6693709016710727, 68.91111222794972 -2.2265438501912436, 68.95676770250937 -1.872449005199798 M68.79691977658177 -3.1121979531509023 C68.85510807088049 -2.6609010331483973, 68.91329636517922 -2.209604113145892, 68.95676770250937 -1.872449005199798 M68.95676770250937 -1.872449005199798 C68.98785392052373 -1.3882560672826032, 69.01894013853808 -0.9040631293654087, 69.03685621591342 -0.6250057626472757 M68.95676770250937 -1.872449005199798 C68.97777469634293 -1.5452481197017622, 68.9987816901765 -1.2180472342037265, 69.03685621591342 -0.6250057626472757 M69.03685621591342 -0.6250057626472757 C69.03685621591342 -0.3711903055562516, 69.03685621591342 -0.1173748484652275, 69.03685621591342 0.625005762647271 M69.03685621591342 -0.6250057626472757 C69.03685621591342 -0.29790007864470214, 69.03685621591342 0.029205605357871423, 69.03685621591342 0.625005762647271 M69.03685621591342 0.625005762647271 C69.01146132886339 1.020551626835234, 68.98606644181338 1.416097491023197, 68.95676770250937 1.8724490051997846 M69.03685621591342 0.625005762647271 C69.01606304806647 0.9488761358064278, 68.99526988021952 1.2727465089655845, 68.95676770250937 1.8724490051997846 M68.95676770250937 1.8724490051997846 C68.92066837873443 2.152428231780421, 68.88456905495948 2.432407458361057, 68.79691977658177 3.1121979531508885 M68.95676770250937 1.8724490051997846 C68.90037172286218 2.3098450866975724, 68.84397574321498 2.7472411681953606, 68.79691977658177 3.1121979531508885 M68.79691977658177 3.1121979531508885 C68.7059792170946 3.5791585058235165, 68.61503865760741 4.046119058496145, 68.55796928754556 4.339158212148129 M68.79691977658177 3.1121979531508885 C68.7382244660332 3.4135859675595617, 68.67952915548462 3.7149739819682344, 68.55796928754556 4.339158212148129 M68.55796928754556 4.339158212148129 C68.46880096636376 4.679195666609181, 68.37963264518197 5.019233121070233, 68.24089813421489 5.548287939305125 M68.55796928754556 4.339158212148129 C68.46116191779377 4.708326669591141, 68.36435454804199 5.077495127034153, 68.24089813421489 5.548287939305125 M68.24089813421489 5.548287939305125 C68.15022247442744 5.821388579380521, 68.05954681463997 6.094489219455918, 67.84700922997033 6.734618561215495 M68.24089813421489 5.548287939305125 C68.09339235261827 5.992551851619474, 67.94588657102163 6.436815763933823, 67.84700922997033 6.734618561215495 M67.84700922997033 6.734618561215495 C67.75238788701282 6.968335107699749, 67.65776654405532 7.202051654184004, 67.37792114880834 7.893275190886679 M67.84700922997033 6.734618561215495 C67.6935018917491 7.113784654484419, 67.53999455352786 7.492950747753344, 67.37792114880834 7.893275190886679 M67.37792114880834 7.893275190886679 C67.25555174354788 8.147377879195858, 67.13318233828743 8.401480567505038, 66.8355614742735 9.019496659696284 M67.37792114880834 7.893275190886679 C67.22588715813995 8.208977025515871, 67.07385316747155 8.524678860145064, 66.8355614742735 9.019496659696284 M66.8355614742735 9.019496659696284 C66.6590898383575 9.332839918955996, 66.4826182024415 9.646183178215708, 66.22215887860425 10.108655082055236 M66.8355614742735 9.019496659696284 C66.69378756590858 9.271230590163157, 66.55201365754365 9.522964520630028, 66.22215887860425 10.108655082055236 M66.22215887860425 10.108655082055236 C65.9573607615593 10.5154560980868, 65.69256264451435 10.922257114118363, 65.54023396464065 11.156274872382301 M66.22215887860425 10.108655082055236 C65.97187029895434 10.493165552291682, 65.72158171930444 10.87767602252813, 65.54023396464065 11.156274872382301 M65.54023396464065 11.156274872382301 C65.24725569589422 11.548839061633135, 64.95427742714782 11.94140325088397, 64.79258890812659 12.158051136245302 M65.54023396464065 11.156274872382301 C65.24365812493846 11.553659478968417, 64.94708228523626 11.951044085554532, 64.79258890812659 12.158051136245302 M64.79258890812659 12.158051136245302 C64.51491261255535 12.484225513252094, 64.23723631698411 12.810399890258886, 63.98229594296866 13.10986736009567 M64.79258890812659 12.158051136245302 C64.58515032452732 12.40172030013079, 64.37771174092805 12.645389464016278, 63.98229594296866 13.10986736009567 M63.98229594296866 13.10986736009567 C63.74233019276271 13.35765169873781, 63.50236444255675 13.60543603737995, 63.11268473676799 14.007812326905684 M63.98229594296866 13.10986736009567 C63.75385515106971 13.345751233069155, 63.52541435917076 13.581635106042638, 63.11268473676799 14.007812326905684 M63.11268473676799 14.007812326905684 C62.76753796571881 14.321265492289413, 62.42239119466962 14.634718657673142, 62.18732870850189 14.848196188198111 M63.11268473676799 14.007812326905684 C62.840079349599286 14.255385326789003, 62.56747396243058 14.50295832667232, 62.18732870850189 14.848196188198111 M62.18732870850189 14.848196188198111 C61.954116377732724 15.03417681594576, 61.72090404696356 15.220157443693408, 61.21003034457871 15.627565626425152 M62.18732870850189 14.848196188198111 C61.86830288350722 15.102610793997613, 61.54927705851255 15.357025399797113, 61.21003034457871 15.627565626425152 M61.21003034457871 15.627565626425152 C60.89673227688179 15.846108795995761, 60.58343420918487 16.06465196556637, 60.18480557360571 16.34271804539089 M61.21003034457871 15.627565626425152 C60.80580724200764 15.90953416424265, 60.401584139436565 16.19150270206015, 60.18480557360571 16.34271804539089 M60.18480557360571 16.34271804539089 C59.93398394137493 16.494767592840706, 59.68316230914416 16.646817140290523, 59.11586726407678 16.990714730406093 M60.18480557360571 16.34271804539089 C59.92634905987351 16.499395902874415, 59.6678925461413 16.656073760357938, 59.11586726407678 16.990714730406093 M59.11586726407678 16.990714730406093 C58.806022315071424 17.152360641837028, 58.49617736606607 17.314006553267962, 58.00760791279239 17.56889292409717 M59.11586726407678 16.990714730406093 C58.83405867156548 17.137734092612224, 58.552250079054176 17.28475345481835, 58.00760791279239 17.56889292409717 M58.00760791279239 17.56889292409717 C57.554887350325004 17.769298887623144, 57.10216678785762 17.96970485114912, 56.864581595147804 18.07487676824742 M58.00760791279239 17.56889292409717 C57.6270511051432 17.73735413402686, 57.24649429749402 17.905815343956547, 56.864581595147804 18.07487676824742 M56.864581595147804 18.07487676824742 C56.574633174706165 18.18158046722376, 56.284684754264525 18.2882841662001, 55.69148525146062 18.506587066708033 M56.864581595147804 18.07487676824742 C56.45901850081115 18.22412773594746, 56.05345540647449 18.373378703647493, 55.69148525146062 18.506587066708033 M55.69148525146062 18.506587066708033 C55.250589772781545 18.637442530472388, 54.80969429410247 18.768297994236747, 54.49313938623541 18.86224982926107 M55.69148525146062 18.506587066708033 C55.443228756129905 18.580268291397253, 55.19497226079919 18.653949516086474, 54.49313938623541 18.86224982926107 M54.49313938623541 18.86224982926107 C54.118177572935195 18.947832416292343, 53.74321575963498 19.033415003323615, 53.274468259676766 19.140403561325773 M54.49313938623541 18.86224982926107 C54.163318283124504 18.937529343762296, 53.8334971800136 19.01280885826352, 53.274468259676766 19.140403561325773 M53.274468259676766 19.140403561325773 C52.79742487253949 19.21752823663141, 52.320381485402216 19.294652911937042, 52.04047965284788 19.3399052695533 M53.274468259676766 19.140403561325773 C52.930814515176266 19.195962833662023, 52.587160770675766 19.251522105998273, 52.04047965284788 19.3399052695533 M52.04047965284788 19.3399052695533 C51.5499197557217 19.387228992844467, 51.05935985859552 19.434552716135634, 50.7962442896239 19.45993515863156 M52.04047965284788 19.3399052695533 C51.60595357083854 19.381823478090666, 51.1714274888292 19.423741686628038, 50.7962442896239 19.45993515863156 M50.7962442896239 19.45993515863156 C50.44533037215705 19.471188284952216, 50.094416454690204 19.482441411272873, 49.54687500000001 19.5 M50.7962442896239 19.45993515863156 C50.52063471865489 19.46877342113105, 50.24502514768587 19.47761168363054, 49.54687500000001 19.5 M49.54687500000001 19.5 C49.54687500000001 19.5, 49.546875 19.5, 49.546875 19.5 M49.54687500000001 19.5 C49.54687500000001 19.5, 49.546875 19.5, 49.546875 19.5 M49.546875 19.5 C18.014730241317096 19.5, -13.517414517365808 19.5, -49.54687499999999 19.5 M49.546875 19.5 C22.14345151928882 19.5, -5.259971961422359 19.5, -49.54687499999999 19.5 M-49.54687499999999 19.5 C-49.88490466592619 19.489160046548577, -50.222934331852386 19.478320093097153, -50.79624428962389 19.45993515863156 M-49.54687499999999 19.5 C-49.8830582033782 19.48921925900857, -50.219241406756396 19.47843851801714, -50.79624428962389 19.45993515863156 M-50.79624428962389 19.45993515863156 C-51.063898383311056 19.434114890114703, -51.33155247699821 19.408294621597847, -52.04047965284787 19.3399052695533 M-50.79624428962389 19.45993515863156 C-51.15741940720497 19.425093029415144, -51.51859452478604 19.390250900198726, -52.04047965284787 19.3399052695533 M-52.04047965284787 19.3399052695533 C-52.36806531348082 19.286943760406903, -52.69565097411376 19.23398225126051, -53.27446825967676 19.140403561325773 M-52.04047965284787 19.3399052695533 C-52.33479883034543 19.292322027414805, -52.62911800784299 19.244738785276308, -53.27446825967676 19.140403561325773 M-53.27446825967676 19.140403561325773 C-53.7049876777661 19.042140313548636, -54.135507095855445 18.9438770657715, -54.493139386235384 18.862249829261074 M-53.27446825967676 19.140403561325773 C-53.562613284218685 19.07463633979609, -53.85075830876061 19.008869118266404, -54.493139386235384 18.862249829261074 M-54.493139386235384 18.862249829261074 C-54.898646532120544 18.741897436912804, -55.3041536780057 18.621545044564538, -55.69148525146059 18.506587066708043 M-54.493139386235384 18.862249829261074 C-54.84308190927364 18.758388725309107, -55.19302443231191 18.65452762135714, -55.69148525146059 18.506587066708043 M-55.69148525146059 18.506587066708043 C-56.083683352648144 18.36225454003152, -56.4758814538357 18.217922013354993, -56.8645815951478 18.074876768247425 M-55.69148525146059 18.506587066708043 C-56.02723598575256 18.383027692842834, -56.36298672004454 18.25946831897762, -56.8645815951478 18.074876768247425 M-56.8645815951478 18.074876768247425 C-57.31341596091367 17.876191108721276, -57.762250326679556 17.677505449195127, -58.00760791279238 17.568892924097174 M-56.8645815951478 18.074876768247425 C-57.29267386443137 17.88537301954156, -57.72076613371495 17.695869270835697, -58.00760791279238 17.568892924097174 M-58.00760791279238 17.568892924097174 C-58.34542055872651 17.392656283092666, -58.683233204660645 17.216419642088155, -59.11586726407678 16.990714730406097 M-58.00760791279238 17.568892924097174 C-58.37348232766898 17.378016476209798, -58.73935674254559 17.187140028322425, -59.11586726407678 16.990714730406097 M-59.11586726407678 16.990714730406097 C-59.53875566849772 16.73435729447801, -59.96164407291865 16.477999858549925, -60.184805573605686 16.3427180453909 M-59.11586726407678 16.990714730406097 C-59.4552756660148 16.784963362566103, -59.79468406795282 16.57921199472611, -60.184805573605686 16.3427180453909 M-60.184805573605686 16.3427180453909 C-60.57812369729079 16.06835634877533, -60.97144182097589 15.793994652159759, -61.21003034457871 15.627565626425156 M-60.184805573605686 16.3427180453909 C-60.54828817486716 16.0891683176591, -60.911770776128634 15.835618589927305, -61.21003034457871 15.627565626425156 M-61.21003034457871 15.627565626425156 C-61.562162727750504 15.346749421481906, -61.9142951109223 15.065933216538655, -62.187328708501866 14.848196188198125 M-61.21003034457871 15.627565626425156 C-61.518838418099804 15.381299405520043, -61.8276464916209 15.135033184614928, -62.187328708501866 14.848196188198125 M-62.187328708501866 14.848196188198125 C-62.54130750708502 14.526722009090687, -62.89528630566818 14.205247829983248, -63.112684736767974 14.007812326905697 M-62.187328708501866 14.848196188198125 C-62.42996921319843 14.62783650174866, -62.67260971789499 14.407476815299196, -63.112684736767974 14.007812326905697 M-63.112684736767974 14.007812326905697 C-63.337089421645 13.776096065802905, -63.56149410652202 13.544379804700114, -63.982295942968655 13.109867360095677 M-63.112684736767974 14.007812326905697 C-63.37118084962406 13.74089386745623, -63.629676962480154 13.47397540800676, -63.982295942968655 13.109867360095677 M-63.982295942968655 13.109867360095677 C-64.30376580079661 12.73225057293786, -64.62523565862456 12.354633785780043, -64.79258890812658 12.158051136245307 M-63.982295942968655 13.109867360095677 C-64.29038053095874 12.747973672532835, -64.59846511894884 12.386079984969994, -64.79258890812658 12.158051136245307 M-64.79258890812658 12.158051136245307 C-65.07160823756503 11.784190653981613, -65.35062756700349 11.410330171717918, -65.54023396464063 11.156274872382316 M-64.79258890812658 12.158051136245307 C-65.08552619488663 11.765541859122674, -65.37846348164668 11.37303258200004, -65.54023396464063 11.156274872382316 M-65.54023396464063 11.156274872382316 C-65.76997458006535 10.803331593096742, -65.99971519549007 10.450388313811168, -66.22215887860425 10.108655082055249 M-65.54023396464063 11.156274872382316 C-65.80940358018651 10.742758060741613, -66.0785731957324 10.32924124910091, -66.22215887860425 10.108655082055249 M-66.22215887860425 10.108655082055249 C-66.37104495583999 9.844292775573042, -66.51993103307574 9.579930469090836, -66.8355614742735 9.019496659696289 M-66.22215887860425 10.108655082055249 C-66.3929757379385 9.805352451224634, -66.56379259727277 9.502049820394019, -66.8355614742735 9.019496659696289 M-66.8355614742735 9.019496659696289 C-67.0025661462842 8.672707884938546, -67.16957081829489 8.325919110180804, -67.37792114880834 7.893275190886686 M-66.8355614742735 9.019496659696289 C-67.0230241971881 8.63022630450443, -67.21048692010268 8.240955949312571, -67.37792114880834 7.893275190886686 M-67.37792114880834 7.893275190886686 C-67.56052784444609 7.442233122201177, -67.74313454008383 6.991191053515668, -67.84700922997033 6.73461856121551 M-67.37792114880834 7.893275190886686 C-67.48682403946758 7.624282945464204, -67.59572693012683 7.355290700041721, -67.84700922997033 6.73461856121551 M-67.84700922997033 6.73461856121551 C-67.92809403964142 6.490404033596155, -68.0091788493125 6.2461895059768, -68.24089813421489 5.5482879393051325 M-67.84700922997033 6.73461856121551 C-67.95366805055781 6.413379187381292, -68.06032687114528 6.092139813547074, -68.24089813421489 5.5482879393051325 M-68.24089813421489 5.5482879393051325 C-68.35812356748718 5.101256556413722, -68.47534900075946 4.654225173522312, -68.55796928754556 4.339158212148136 M-68.24089813421489 5.5482879393051325 C-68.31443673125739 5.267853396952503, -68.38797532829989 4.987418854599875, -68.55796928754556 4.339158212148136 M-68.55796928754556 4.339158212148136 C-68.64416399365517 3.8965666135329005, -68.73035869976476 3.453975014917665, -68.79691977658177 3.112197953150904 M-68.55796928754556 4.339158212148136 C-68.61699734673125 4.03606160381431, -68.67602540591695 3.732964995480484, -68.79691977658177 3.112197953150904 M-68.79691977658177 3.112197953150904 C-68.83035987133589 2.8528431817316413, -68.86379996609 2.5934884103123785, -68.95676770250937 1.872449005199809 M-68.79691977658177 3.112197953150904 C-68.85042371883375 2.69723194259303, -68.90392766108573 2.2822659320351555, -68.95676770250937 1.872449005199809 M-68.95676770250937 1.872449005199809 C-68.98142121801551 1.4884506012320187, -69.00607473352166 1.1044521972642283, -69.03685621591342 0.6250057626472781 M-68.95676770250937 1.872449005199809 C-68.97441871981324 1.5975201630472804, -68.9920697371171 1.3225913208947515, -69.03685621591342 0.6250057626472781 M-69.03685621591342 0.6250057626472781 C-69.03685621591342 0.2891774661855114, -69.03685621591342 -0.046650830276255384, -69.03685621591342 -0.6250057626472687 M-69.03685621591342 0.6250057626472781 C-69.03685621591342 0.2291239023777405, -69.03685621591342 -0.16675795789179715, -69.03685621591342 -0.6250057626472687 M-69.03685621591342 -0.6250057626472687 C-69.01046995722263 -1.0359930403609265, -68.98408369853185 -1.4469803180745846, -68.95676770250937 -1.8724490051997822 M-69.03685621591342 -0.6250057626472687 C-69.00510419397092 -1.1195691341723526, -68.97335217202844 -1.6141325056974367, -68.95676770250937 -1.8724490051997822 M-68.95676770250937 -1.8724490051997822 C-68.91222914441579 -2.2178812666405197, -68.8676905863222 -2.5633135280812573, -68.79691977658177 -3.112197953150895 M-68.95676770250937 -1.8724490051997822 C-68.90537009093964 -2.2710787309282114, -68.8539724793699 -2.669708456656641, -68.79691977658177 -3.112197953150895 M-68.79691977658177 -3.112197953150895 C-68.72677781373673 -3.4723621078510756, -68.6566358508917 -3.832526262551256, -68.55796928754556 -4.339158212148126 M-68.79691977658177 -3.112197953150895 C-68.7356694554622 -3.4267054068399463, -68.67441913434263 -3.7412128605289974, -68.55796928754556 -4.339158212148126 M-68.55796928754556 -4.339158212148126 C-68.46066217482876 -4.710232406106751, -68.36335506211194 -5.081306600065377, -68.24089813421489 -5.548287939305123 M-68.55796928754556 -4.339158212148126 C-68.43496447355234 -4.808228878527896, -68.31195965955912 -5.277299544907666, -68.24089813421489 -5.548287939305123 M-68.24089813421489 -5.548287939305123 C-68.1523413111865 -5.815006980652985, -68.06378448815812 -6.081726022000847, -67.84700922997033 -6.734618561215485 M-68.24089813421489 -5.548287939305123 C-68.12968557293837 -5.883242454554654, -68.01847301166187 -6.218196969804186, -67.84700922997033 -6.734618561215485 M-67.84700922997033 -6.734618561215485 C-67.7493134151809 -6.975929112565474, -67.65161760039146 -7.217239663915464, -67.37792114880834 -7.893275190886676 M-67.84700922997033 -6.734618561215485 C-67.70636939635602 -7.082001669329031, -67.56572956274171 -7.429384777442578, -67.37792114880834 -7.893275190886676 M-67.37792114880834 -7.893275190886676 C-67.17561454529726 -8.313369181745307, -66.97330794178619 -8.733463172603937, -66.8355614742735 -9.019496659696282 M-67.37792114880834 -7.893275190886676 C-67.17290322179255 -8.318999303015882, -66.96788529477675 -8.744723415145087, -66.8355614742735 -9.019496659696282 M-66.8355614742735 -9.019496659696282 C-66.6584808348172 -9.3339212664101, -66.4814001953609 -9.648345873123915, -66.22215887860425 -10.108655082055243 M-66.8355614742735 -9.019496659696282 C-66.69267144269027 -9.273212379956993, -66.54978141110703 -9.526928100217702, -66.22215887860425 -10.108655082055243 M-66.22215887860425 -10.108655082055243 C-66.06014058240493 -10.357558693021621, -65.8981222862056 -10.606462303987998, -65.54023396464063 -11.156274872382308 M-66.22215887860425 -10.108655082055243 C-65.98553398243948 -10.472174465245756, -65.74890908627471 -10.83569384843627, -65.54023396464063 -11.156274872382308 M-65.54023396464063 -11.156274872382308 C-65.30141921557009 -11.476264879665635, -65.06260446649954 -11.79625488694896, -64.79258890812659 -12.158051136245302 M-65.54023396464063 -11.156274872382308 C-65.32324741063151 -11.447017086872805, -65.10626085662238 -11.737759301363301, -64.79258890812659 -12.158051136245302 M-64.79258890812659 -12.158051136245302 C-64.52812728397919 -12.46870280826155, -64.26366565983179 -12.7793544802778, -63.98229594296866 -13.10986736009567 M-64.79258890812659 -12.158051136245302 C-64.5171690013637 -12.481575030565656, -64.24174909460079 -12.80509892488601, -63.98229594296866 -13.10986736009567 M-63.98229594296866 -13.10986736009567 C-63.79955658424674 -13.29856075115643, -63.61681722552481 -13.48725414221719, -63.112684736767996 -14.007812326905677 M-63.98229594296866 -13.10986736009567 C-63.718827079196956 -13.38192059313596, -63.45535821542524 -13.653973826176252, -63.112684736767996 -14.007812326905677 M-63.112684736767996 -14.007812326905677 C-62.842024442395505 -14.25361884497581, -62.571364148023015 -14.49942536304594, -62.18732870850189 -14.848196188198107 M-63.112684736767996 -14.007812326905677 C-62.79964567985052 -14.292106115838553, -62.486606622933046 -14.576399904771428, -62.18732870850189 -14.848196188198107 M-62.18732870850189 -14.848196188198107 C-61.853229223653706 -15.114631636603855, -61.51912973880552 -15.381067085009603, -61.21003034457872 -15.627565626425149 M-62.18732870850189 -14.848196188198107 C-61.919555405113265 -15.061738271903668, -61.65178210172465 -15.275280355609228, -61.21003034457872 -15.627565626425149 M-61.21003034457872 -15.627565626425149 C-60.89825373757627 -15.84504749087827, -60.58647713057381 -16.062529355331392, -60.184805573605715 -16.342718045390885 M-61.21003034457872 -15.627565626425149 C-60.8355123216558 -15.888813186592268, -60.460994298732885 -16.150060746759387, -60.184805573605715 -16.342718045390885 M-60.184805573605715 -16.342718045390885 C-59.895884822956965 -16.51786350232095, -59.606964072308216 -16.693008959251014, -59.11586726407679 -16.99071473040609 M-60.184805573605715 -16.342718045390885 C-59.83977145811943 -16.551879753844197, -59.494737342633144 -16.761041462297513, -59.11586726407679 -16.99071473040609 M-59.11586726407679 -16.99071473040609 C-58.77090631389574 -17.17068063715751, -58.42594536371469 -17.35064654390893, -58.00760791279239 -17.56889292409717 M-59.11586726407679 -16.99071473040609 C-58.78176829345835 -17.165013949377126, -58.447669322839914 -17.339313168348163, -58.00760791279239 -17.56889292409717 M-58.00760791279239 -17.56889292409717 C-57.75508847340404 -17.680675789191373, -57.50256903401568 -17.79245865428557, -56.864581595147804 -18.07487676824742 M-58.00760791279239 -17.56889292409717 C-57.767498979137294 -17.67518202644783, -57.5273900454822 -17.78147112879849, -56.864581595147804 -18.07487676824742 M-56.864581595147804 -18.07487676824742 C-56.473412521295124 -18.21883060335249, -56.08224344744244 -18.362784438457556, -55.69148525146062 -18.506587066708033 M-56.864581595147804 -18.07487676824742 C-56.44454691627433 -18.229453412830868, -56.02451223740085 -18.384030057414318, -55.69148525146062 -18.506587066708033 M-55.69148525146062 -18.506587066708033 C-55.350105361631854 -18.607906826069602, -55.00872547180308 -18.70922658543117, -54.49313938623541 -18.862249829261067 M-55.69148525146062 -18.506587066708033 C-55.26784856047289 -18.632320212878824, -54.84421186948516 -18.75805335904961, -54.49313938623541 -18.862249829261067 M-54.49313938623541 -18.862249829261067 C-54.20273979361106 -18.928531641243133, -53.912340200986705 -18.994813453225202, -53.274468259676766 -19.140403561325773 M-54.49313938623541 -18.862249829261067 C-54.03890132660515 -18.965926702191318, -53.584663266974886 -19.069603575121572, -53.274468259676766 -19.140403561325773 M-53.274468259676766 -19.140403561325773 C-52.811840828721486 -19.21519757663331, -52.34921339776621 -19.289991591940854, -52.04047965284788 -19.3399052695533 M-53.274468259676766 -19.140403561325773 C-52.86621289512755 -19.206407122598453, -52.457957530578334 -19.272410683871133, -52.04047965284788 -19.3399052695533 M-52.04047965284788 -19.3399052695533 C-51.76607733378387 -19.366376531256332, -51.49167501471986 -19.392847792959365, -50.7962442896239 -19.45993515863156 M-52.04047965284788 -19.3399052695533 C-51.584143911170365 -19.383927429728903, -51.127808169492845 -19.427949589904507, -50.7962442896239 -19.45993515863156 M-50.7962442896239 -19.45993515863156 C-50.51109210533684 -19.469079434166588, -50.22593992104978 -19.47822370970162, -49.54687500000001 -19.5 M-50.7962442896239 -19.45993515863156 C-50.45395565229776 -19.470911689006194, -50.111667014971616 -19.481888219380828, -49.54687500000001 -19.5 M-49.54687500000001 -19.5 C-49.54687500000001 -19.5, -49.546875 -19.5, -49.546875 -19.5 M-49.54687500000001 -19.5 C-49.54687500000001 -19.5, -49.546875 -19.5, -49.546875 -19.5" stroke="#1f3a5a" stroke-width="1.3" fill="none" stroke-dasharray="0 0" style="fill:#4A90D9 !important;stroke:#1f3a5a !important"/></g><g class="label" style="color:#fff !important" transform="translate(-56.671875, -12)"><rect/><foreignObject width="113.34375" height="24"><div style="color: rgb(255, 255, 255) !important; display: table-cell; white-space: nowrap; line-height: 1.5; max-width: 200px; text-align: center;" xmlns="http://www.w3.org/1999/xhtml"><span style="color:#fff !important" class="nodeLabel"><p>Arch-*（青）: 設計</p></span></div></foreignObject></g></g><g class="node default dev" id="my-svg-flowchart-ld-5" data-look="classic" transform="translate(152.7265625, 159)"><rect class="basic label-container" style="fill:#50C878 !important;stroke:#1b5e20 !important" x="-84.453125" y="-27" width="168.90625" height="54"/><g class="label" style="color:#111 !important" transform="translate(-54.453125, -12)"><rect/><foreignObject width="108.90625" height="24"><div style="color: rgb(17, 17, 17) !important; display: table-cell; white-space: nowrap; line-height: 1.5; max-width: 200px; text-align: center;" xmlns="http://www.w3.org/1999/xhtml"><span style="color:#111 !important" class="nodeLabel"><p>Dev-*（緑）: 実装</p></span></div></foreignObject></g></g><g class="node default doc" id="my-svg-flowchart-lc-6" data-look="classic" transform="translate(152.7265625, 329.453125)"><polygon points="93.453125,0 186.90625,-93.453125 93.453125,-186.90625 0,-93.453125" class="label-container" transform="translate(-92.953125, 93.453125)" style="fill:#9B59B6 !important;stroke:#4a235a !important"/><g class="label" style="color:#fff !important" transform="translate(-66.453125, -12)"><rect/><foreignObject width="132.90625" height="24"><div style="color: rgb(255, 255, 255) !important; display: table-cell; white-space: nowrap; line-height: 1.5; max-width: 200px; text-align: center;" xmlns="http://www.w3.org/1999/xhtml"><span style="color:#fff !important" class="nodeLabel"><p>Doc-*（紫）: 文書生成</p></span></div></foreignObject></g></g><g class="node default qa" id="my-svg-flowchart-lq-7" data-look="classic" transform="translate(152.7265625, 492.40625)"><polygon points="9.75,0 152.3125,0 162.0625,-19.5 152.3125,-39 9.75,-39 0,-19.5" class="label-container" transform="translate(-81.03125,19.5)" style="fill:#E67E22 !important;stroke:#7e3d00 !important"/><g class="label" style="color:#111 !important" transform="translate(-63.78125, -12)"><rect/><foreignObject width="127.5625" height="24"><div style="color: rgb(17, 17, 17) !important; display: table-cell; white-space: nowrap; line-height: 1.5; max-width: 200px; text-align: center;" xmlns="http://www.w3.org/1999/xhtml"><span style="color:#111 !important" class="nodeLabel"><p>QA-*（橙）: 品質確認</p></span></div></foreignObject></g></g><g class="node default km" id="my-svg-flowchart-lk-8" data-look="classic" transform="translate(152.7265625, 581.40625)"><polygon points="0,0 193.328125,0 193.328125,-39 0,-39 0,0 -8,0 201.328125,0 201.328125,-39 -8,-39 -8,0" class="label-container" transform="translate(-96.6640625,19.5)" style="fill:#F39C12 !important;stroke:#7a4f00 !important;stroke-width:3px !important"/><g class="label" style="color:#111 !important" transform="translate(-89.1640625, -12)"><rect/><foreignObject width="178.328125" height="24"><div style="color: rgb(17, 17, 17) !important; display: table-cell; white-space: nowrap; line-height: 1.5; max-width: 200px; text-align: center;" xmlns="http://www.w3.org/1999/xhtml"><span style="color:#111 !important" class="nodeLabel"><p>KnowledgeManager（金）</p></span></div></foreignObject></g></g><g class="node default file" id="my-svg-flowchart-lf-9" data-look="classic" transform="translate(152.7265625, 670.40625)"><polygon points="-19.5,0 175.453125,0 194.953125,-39 0,-39" class="label-container" transform="translate(-87.7265625,19.5)" style="fill:#95A5A6 !important;stroke:#5d6d73 !important"/><g class="label" style="color:#111 !important" transform="translate(-80.2265625, -12)"><rect/><foreignObject width="160.453125" height="24"><div style="color: rgb(17, 17, 17) !important; display: table-cell; white-space: nowrap; line-height: 1.5; max-width: 200px; text-align: center;" xmlns="http://www.w3.org/1999/xhtml"><span style="color:#111 !important" class="nodeLabel"><p>ファイル/ディレクトリ（灰）</p></span></div></foreignObject></g></g></g></g><g class="node default qa" id="my-svg-flowchart-s1-0" data-look="classic" transform="translate(447.84375, 366.453125)"><polygon points="9.75,0 191.03125,0 200.78125,-19.5 191.03125,-39 9.75,-39 0,-19.5" class="label-container" transform="translate(-100.390625,19.5)" style="fill:#E67E22 !important;stroke:#7e3d00 !important"/><g class="label" style="color:#111 !important" transform="translate(-83.140625, -12)"><rect/><foreignObject width="166.28125" height="24"><div style="color: rgb(17, 17, 17) !important; display: table-cell; white-space: nowrap; line-height: 1.5; max-width: 200px; text-align: center;" xmlns="http://www.w3.org/1999/xhtml"><span style="color:#111 !important" class="nodeLabel"><p>QA-DocConsistency [1]</p></span></div></foreignObject></g></g><g class="node default file" id="my-svg-flowchart-kn-2" data-look="classic" transform="translate(447.84375, 818.40625)"><polygon points="-19.5,0 95.953125,0 115.453125,-39 0,-39" class="label-container" transform="translate(-47.9765625,19.5)" style="fill:#95A5A6 !important;stroke:#5d6d73 !important"/><g class="label" style="color:#111 !important" transform="translate(-40.4765625, -12)"><rect/><foreignObject width="80.953125" height="24"><div style="color: rgb(17, 17, 17) !important; display: table-cell; white-space: nowrap; line-height: 1.5; max-width: 200px; text-align: center;" xmlns="http://www.w3.org/1999/xhtml"><span style="color:#111 !important" class="nodeLabel"><p>knowledge/</p></span></div></foreignObject></g></g></g></g></g><defs><filter id="my-svg-drop-shadow" height="130%" width="130%"><feDropShadow dx="4" dy="4" stdDeviation="0" flood-opacity="0.06" flood-color="#000000"/></filter></defs><defs><filter id="my-svg-drop-shadow-small" height="150%" width="150%"><feDropShadow dx="2" dy="2" stdDeviation="0" flood-opacity="0.06" flood-color="#000000"/></filter></defs></svg>