<svg id="my-svg" width="100%" xmlns="http://www.w3.org/2000/svg" xmlns:xlink="http://www.w3.org/1999/xlink" class="flowchart" style="max-width: 551.016px; background-color: transparent;" viewBox="0 0 551.015625 845.90625" role="graphics-document document" aria-roledescription="flowchart-v2"><style>#my-svg{font-family:"trebuchet ms",verdana,arial,sans-serif;font-size:16px;fill:#333;}@keyframes edge-animation-frame{from{stroke-dashoffset:0;}}@keyframes dash{to{stroke-dashoffset:0;}}#my-svg .edge-animation-slow{stroke-dasharray:9,5!important;stroke-dashoffset:900;animation:dash 50s linear infinite;stroke-linecap:round;}#my-svg .edge-animation-fast{stroke-dasharray:9,5!important;stroke-dashoffset:900;animation:dash 20s linear infinite;stroke-linecap:round;}#my-svg .error-icon{fill:#552222;}#my-svg .error-text{fill:#552222;stroke:#552222;}#my-svg .edge-thickness-normal{stroke-width:1px;}#my-svg .edge-thickness-thick{stroke-width:3.5px;}#my-svg .edge-pattern-solid{stroke-dasharray:0;}#my-svg .edge-thickness-invisible{stroke-width:0;fill:none;}#my-svg .edge-pattern-dashed{stroke-dasharray:3;}#my-svg .edge-pattern-dotted{stroke-dasharray:2;}#my-svg .marker{fill:#333333;stroke:#333333;}#my-svg .marker.cross{stroke:#333333;}#my-svg svg{font-family:"trebuchet ms",verdana,arial,sans-serif;font-size:16px;}#my-svg p{margin:0;}#my-svg .label{font-family:"trebuchet ms",verdana,arial,sans-serif;color:#333;}#my-svg .cluster-label text{fill:#333;}#my-svg .cluster-label span{color:#333;}#my-svg .cluster-label span p{background-color:transparent;}#my-svg .label text,#my-svg span{fill:#333;color:#333;}#my-svg .node rect,#my-svg .node circle,#my-svg .node ellipse,#my-svg .node polygon,#my-svg .node path{fill:#ECECFF;stroke:#9370DB;stroke-width:1px;}#my-svg .rough-node .label text,#my-svg .node .label text,#my-svg .image-shape .label,#my-svg .icon-shape .label{text-anchor:middle;}#my-svg .node .katex path{fill:#000;stroke:#000;stroke-width:1px;}#my-svg .rough-node .label,#my-svg .node .label,#my-svg .image-shape .label,#my-svg .icon-shape .label{text-align:center;}#my-svg .node.clickable{cursor:pointer;}#my-svg .root .anchor path{fill:#333333!important;stroke-width:0;stroke:#333333;}#my-svg .arrowheadPath{fill:#333333;}#my-svg .edgePath .path{stroke:#333333;stroke-width:1px;}#my-svg .flowchart-link{stroke:#333333;fill:none;}#my-svg .edgeLabel{background-color:rgba(232,232,232, 0.8);text-align:center;}#my-svg .edgeLabel p{background-color:rgba(232,232,232, 0.8);}#my-svg .edgeLabel rect{opacity:0.5;background-color:rgba(232,232,232, 0.8);fill:rgba(232,232,232, 0.8);}#my-svg .labelBkg{background-color:rgba(232, 232, 232, 0.5);}#my-svg .cluster rect{fill:#ffffde;stroke:#aaaa33;stroke-width:1px;}#my-svg .cluster text{fill:#333;}#my-svg .cluster span{color:#333;}#my-svg div.mermaidTooltip{position:absolute;text-align:center;max-width:200px;padding:2px;font-family:"trebuchet ms",verdana,arial,sans-serif;font-size:12px;background:hsl(80, 100%, 96.2745098039%);border:1px solid #aaaa33;border-radius:2px;pointer-events:none;z-index:100;}#my-svg .flowchartTitleText{text-anchor:middle;font-size:18px;fill:#333;}#my-svg rect.text{fill:none;stroke-width:0;}#my-svg .icon-shape,#my-svg .image-shape{background-color:rgba(232,232,232, 0.8);text-align:center;}#my-svg .icon-shape p,#my-svg .image-shape p{background-color:rgba(232,232,232, 0.8);padding:2px;}#my-svg .icon-shape .label rect,#my-svg .image-shape .label rect{opacity:0.5;background-color:rgba(232,232,232, 0.8);fill:rgba(232,232,232, 0.8);}#my-svg .label-icon{display:inline-block;height:1em;overflow:visible;vertical-align:-0.125em;}#my-svg .node .label-icon path{fill:currentColor;stroke:revert;stroke-width:revert;}#my-svg .node .neo-node{stroke:#9370DB;}#my-svg [data-look="neo"].node rect,#my-svg [data-look="neo"].cluster rect,#my-svg [data-look="neo"].node polygon{stroke:#9370DB;filter:drop-shadow(1px 2px 2px rgba(185, 185, 185, 1));}#my-svg [data-look="neo"].node path{stroke:#9370DB;stroke-width:1px;}#my-svg [data-look="neo"].node .outer-path{filter:drop-shadow(1px 2px 2px rgba(185, 185, 185, 1));}#my-svg [data-look="neo"].node .neo-line path{stroke:#9370DB;filter:none;}#my-svg [data-look="neo"].node circle{stroke:#9370DB;filter:drop-shadow(1px 2px 2px rgba(185, 185, 185, 1));}#my-svg [data-look="neo"].node circle .state-start{fill:#000000;}#my-svg [data-look="neo"].icon-shape .icon{fill:#9370DB;filter:drop-shadow(1px 2px 2px rgba(185, 185, 185, 1));}#my-svg [data-look="neo"].icon-shape .icon-neo path{stroke:#9370DB;filter:drop-shadow(1px 2px 2px rgba(185, 185, 185, 1));}#my-svg :root{--mermaid-font-family:"trebuchet ms",verdana,arial,sans-serif;}#my-svg .arch&gt;*{fill:#4A90D9!important;stroke:#1f3a5a!important;color:#fff!important;}#my-svg .arch span{fill:#4A90D9!important;stroke:#1f3a5a!important;color:#fff!important;}#my-svg .arch tspan{fill:#fff!important;}#my-svg .dev&gt;*{fill:#50C878!important;stroke:#1b5e20!important;color:#111!important;}#my-svg .dev span{fill:#50C878!important;stroke:#1b5e20!important;color:#111!important;}#my-svg .dev tspan{fill:#111!important;}#my-svg .doc&gt;*{fill:#9B59B6!important;stroke:#4a235a!important;color:#fff!important;}#my-svg .doc span{fill:#9B59B6!important;stroke:#4a235a!important;color:#fff!important;}#my-svg .doc tspan{fill:#fff!important;}#my-svg .qa&gt;*{fill:#E67E22!important;stroke:#7e3d00!important;color:#111!important;}#my-svg .qa span{fill:#E67E22!important;stroke:#7e3d00!important;color:#111!important;}#my-svg .qa tspan{fill:#111!important;}#my-svg .km&gt;*{fill:#F39C12!important;stroke:#7a4f00!important;color:#111!important;stroke-width:3px!important;}#my-svg .km span{fill:#F39C12!important;stroke:#7a4f00!important;color:#111!important;stroke-width:3px!important;}#my-svg .km tspan{fill:#111!important;}#my-svg .file&gt;*{fill:#95A5A6!important;stroke:#5d6d73!important;color:#111!important;}#my-svg .file span{fill:#95A5A6!important;stroke:#5d6d73!important;color:#111!important;}#my-svg .file tspan{fill:#111!important;}</style><g><marker id="my-svg_flowchart-v2-pointEnd" class="marker flowchart-v2" viewBox="0 0 10 10" refX="5" refY="5" markerUnits="userSpaceOnUse" markerWidth="8" markerHeight="8" orient="auto"><path d="M 0 0 L 10 5 L 0 10 z" class="arrowMarkerPath" style="stroke-width: 1; stroke-dasharray: 1, 0;"/></marker><marker id="my-svg_flowchart-v2-pointStart" class="marker flowchart-v2" viewBox="0 0 10 10" refX="4.5" refY="5" markerUnits="userSpaceOnUse" markerWidth="8" markerHeight="8" orient="auto"><path d="M 0 5 L 10 10 L 10 0 z" class="arrowMarkerPath" style="stroke-width: 1; stroke-dasharray: 1, 0;"/></marker><marker id="my-svg_flowchart-v2-pointEnd-margin" class="marker flowchart-v2" viewBox="0 0 11.5 14" refX="11.5" refY="7" markerUnits="userSpaceOnUse" markerWidth="10.5" markerHeight="14" orient="auto"><path d="M 0 0 L 11.5 7 L 0 14 z" class="arrowMarkerPath" style="stroke-width: 0; stroke-dasharray: 1, 0;"/></marker><marker id="my-svg_flowchart-v2-pointStart-margin" class="marker flowchart-v2" viewBox="0 0 11.5 14" refX="1" refY="7" markerUnits="userSpaceOnUse" markerWidth="11.5" markerHeight="14" orient="auto"><polygon points="0,7 11.5,14 11.5,0" class="arrowMarkerPath" style="stroke-width: 0; stroke-dasharray: 1, 0;"/></marker><marker id="my-svg_flowchart-v2-circleEnd" class="marker flowchart-v2" viewBox="0 0 10 10" refX="11" refY="5" markerUnits="userSpaceOnUse" markerWidth="11" markerHeight="11" orient="auto"><circle cx="5" cy="5" r="5" class="arrowMarkerPath" style="stroke-width: 1; stroke-dasharray: 1, 0;"/></marker><marker id="my-svg_flowchart-v2-circleStart" class="marker flowchart-v2" viewBox="0 0 10 10" refX="-1" refY="5" markerUnits="userSpaceOnUse" markerWidth="11" markerHeight="11" orient="auto"><circle cx="5" cy="5" r="5" class="arrowMarkerPath" style="stroke-width: 1; stroke-dasharray: 1, 0;"/></marker><marker id="my-svg_flowchart-v2-circleEnd-margin" class="marker flowchart-v2" viewBox="0 0 10 10" refY="5" refX="12.25" markerUnits="userSpaceOnUse" markerWidth="14" markerHeight="14" orient="auto"><circle cx="5" cy="5" r="5" class="arrowMarkerPath" style="stroke-width: 0; stroke-dasharray: 1, 0;"/></marker><marker id="my-svg_flowchart-v2-circleStart-margin" class="marker flowchart-v2" viewBox="0 0 10 10" refX="-2" refY="5" markerUnits="userSpaceOnUse" markerWidth="14" markerHeight="14" orient="auto"><circle cx="5" cy="5" r="5" class="arrowMarkerPath" style="stroke-width: 0; stroke-dasharray: 1, 0;"/></marker><marker id="my-svg_flowchart-v2-crossEnd" class="marker cross flowchart-v2" viewBox="0 0 11 11" refX="12" refY="5.2" markerUnits="userSpaceOnUse" markerWidth="11" markerHeight="11" orient="auto"><path d="M 1,1 l 9,9 M 10,1 l -9,9" class="arrowMarkerPath" style="stroke-width: 2; stroke-dasharray: 1, 0;"/></marker><marker id="my-svg_flowchart-v2-crossStart" class="marker cross flowchart-v2" viewBox="0 0 11 11" refX="-1" refY="5.2" markerUnits="userSpaceOnUse" markerWidth="11" markerHeight="11" orient="auto"><path d="M 1,1 l 9,9 M 10,1 l -9,9" class="arrowMarkerPath" style="stroke-width: 2; stroke-dasharray: 1, 0;"/></marker><marker id="my-svg_flowchart-v2-crossEnd-margin" class="marker cross flowchart-v2" viewBox="0 0 15 15" refX="17.7" refY="7.5" markerUnits="userSpaceOnUse" markerWidth="12" markerHeight="12" orient="auto"><path d="M 1,1 L 14,14 M 1,14 L 14,1" class="arrowMarkerPath" style="stroke-width: 2.5;"/></marker><marker id="my-svg_flowchart-v2-crossStart-margin" class="marker cross flowchart-v2" viewBox="0 0 15 15" refX="-3.5" refY="7.5" markerUnits="userSpaceOnUse" markerWidth="12" markerHeight="12" orient="auto"><path d="M 1,1 L 14,14 M 1,14 L 14,1" class="arrowMarkerPath" style="stroke-width: 2.5; stroke-dasharray: 1, 0;"/></marker><g class="root"><g class="clusters"/><g class="edgePaths"><path d="M445.734,386.453L445.651,449.029C445.568,511.604,445.401,636.755,445.392,704.914C445.383,773.073,445.532,784.24,445.607,789.823L445.681,795.407" id="my-svg-L_s1_kn_0" class="edge-thickness-normal edge-pattern-dotted edge-thickness-normal edge-pattern-solid flowchart-link" style=";" data-edge="true" data-et="edge" data-id="L_s1_kn_0" data-points="W3sieCI6NDQ1LjczNDM3NSwieSI6Mzg2LjQ1MzEyNX0seyJ4Ijo0NDUuMjM0Mzc1LCJ5Ijo3NjEuOTA2MjV9LHsieCI6NDQ1LjczNDM3NSwieSI6Nzk5LjQwNjI1fV0=" data-look="classic" marker-end="url(#my-svg_flowchart-v2-pointEnd)"/></g><g class="edgeLabels"><g class="edgeLabel" transform="translate(445.234375, 761.90625)"><g class="label" data-id="L_s1_kn_0" transform="translate(-54.6953125, -12)"><foreignObject width="109.390625" height="24"><div xmlns="http://www.w3.org/1999/xhtml" class="labelBkg" style="display: table-cell; white-space: nowrap; line-height: 1.5; max-width: 200px; text-align: center;"><span class="edgeLabel"><p>knowledge/ 参照</p></span></div></foreignObject></g></g></g><g class="nodes"><g class="root" transform="translate(0, 0)"><g class="clusters"><g class="cluster" id="my-svg-LEG" data-look="classic"><rect style="" x="8" y="8" width="289.453125" height="716.90625"/><g class="cluster-label" transform="translate(140.7265625, 8)"><foreignObject width="24" height="24"><div xmlns="http://www.w3.org/1999/xhtml" style="display: table-cell; white-space: nowrap; line-height: 1.5;"><span class="nodeLabel"><p>凡例</p></span></div></foreignObject></g></g></g><g class="edgePaths"/><g class="edgeLabels"/><g class="nodes"><g class="node default arch" id="my-svg-flowchart-la-4" data-look="classic" transform="translate(152.7265625, 62.5)"><g class="basic label-container outer-path"><path d="M-49.546875 -19.5 C-28.82735855000113 -19.5, -8.107842100002259 -19.5, 49.546875 -19.5 C49.546875 -19.5, 49.546875 -19.5, 49.546875 -19.5 C49.85631949911999 -19.4900767172104, 50.16576399823999 -19.4801534344208, 50.7962442896239 -19.45993515863156 C51.21001650038461 -19.420019051093362, 51.623788711145316 -19.380102943555165, 52.040479652847864 -19.3399052695533 C52.31269230391212 -19.295896039169868, 52.58490495497638 -19.251886808786438, 53.27446825967676 -19.140403561325776 C53.6096711971254 -19.063895678256713, 53.94487413457405 -18.98738779518765, 54.49313938623539 -18.862249829261074 C54.751009165257386 -18.785715432433438, 55.008878944279374 -18.709181035605805, 55.691485251460605 -18.50658706670804 C56.086765445410606 -18.36112030140438, 56.48204563936061 -18.21565353610072, 56.8645815951478 -18.074876768247425 C57.32028058174002 -17.873152344713194, 57.77597956833225 -17.671427921178964, 58.00760791279238 -17.568892924097174 C58.3302000988503 -17.400596787260916, 58.65279228490821 -17.23230065042466, 59.11586726407678 -16.990714730406097 C59.4601257841298 -16.782023192462333, 59.804384304182825 -16.57333165451857, 60.1848055736057 -16.342718045390892 C60.52914946762969 -16.102518651326676, 60.87349336165369 -15.86231925726246, 61.21003034457871 -15.627565626425154 C61.50810433267663 -15.389859552999013, 61.80617832077455 -15.152153479572872, 62.187328708501866 -14.848196188198123 C62.51764390079532 -14.548212670218282, 62.847959093088775 -14.248229152238439, 63.11268473676799 -14.007812326905688 C63.403751088749225 -13.70726242149314, 63.69481744073046 -13.40671251608059, 63.98229594296865 -13.10986736009568 C64.17319284902294 -12.88562899190263, 64.36408975507725 -12.661390623709579, 64.79258890812658 -12.158051136245305 C65.06876536225388 -11.78799984790727, 65.34494181638121 -11.417948559569236, 65.54023396464063 -11.156274872382312 C65.79793111199125 -10.760382852678596, 66.05562825934187 -10.36449083297488, 66.22215887860425 -10.108655082055241 C66.42996716325911 -9.739670429779906, 66.63777544791397 -9.37068577750457, 66.8355614742735 -9.019496659696287 C66.98590015098154 -8.707315180779698, 67.13623882768955 -8.39513370186311, 67.37792114880834 -7.893275190886684 C67.48746794931816 -7.622692475684123, 67.59701474982798 -7.352109760481562, 67.84700922997033 -6.734618561215508 C67.94843513903385 -6.429139883140213, 68.04986104809737 -6.123661205064916, 68.24089813421489 -5.548287939305138 C68.34513749331421 -5.150778085435408, 68.44937685241352 -4.753268231565677, 68.55796928754556 -4.339158212148133 C68.64779822408688 -3.8779056083609285, 68.7376271606282 -3.416653004573724, 68.79691977658177 -3.1121979531509023 C68.84688833010837 -2.724651719405583, 68.89685688363497 -2.337105485660263, 68.95676770250937 -1.872449005199798 C68.97538077461475 -1.5825353829572109, 68.99399384672012 -1.2926217607146235, 69.03685621591342 -0.6250057626472757 C69.03685621591342 -0.2666214052294375, 69.03685621591342 0.09176295218840069, 69.03685621591342 0.625005762647271 C69.0166915500114 0.9390867106965364, 68.99652688410939 1.2531676587458016, 68.95676770250937 1.8724490051997846 C68.89949193198795 2.316668570983694, 68.84221616146654 2.760888136767604, 68.79691977658177 3.1121979531508885 C68.7465665590024 3.3707510832646843, 68.69621334142302 3.6293042133784805, 68.55796928754556 4.339158212148129 C68.43441676986062 4.8103175100807265, 68.31086425217566 5.281476808013324, 68.24089813421489 5.548287939305125 C68.16151108382525 5.787389086469973, 68.08212403343559 6.02649023363482, 67.84700922997033 6.734618561215495 C67.74156289545992 6.99507304612237, 67.63611656094953 7.255527531029244, 67.37792114880834 7.893275190886679 C67.22008451359976 8.221026341060288, 67.06224787839118 8.548777491233896, 66.8355614742735 9.019496659696284 C66.69223787254514 9.273982227653411, 66.54891427081678 9.52846779561054, 66.22215887860425 10.108655082055236 C65.98908037356146 10.466726256143039, 65.75600186851868 10.824797430230843, 65.54023396464065 11.156274872382301 C65.3894643863693 11.358292371874775, 65.23869480809793 11.560309871367249, 64.79258890812659 12.158051136245302 C64.54419837717403 12.449824787723786, 64.29580784622146 12.741598439202273, 63.98229594296866 13.10986736009567 C63.66954047147872 13.432813062110784, 63.35678499998878 13.755758764125895, 63.11268473676799 14.007812326905684 C62.92215383789832 14.180847448087778, 62.731622939028654 14.353882569269874, 62.18732870850189 14.848196188198111 C61.89186871643625 15.08381766934986, 61.59640872437062 15.31943915050161, 61.21003034457871 15.627565626425152 C60.82260073086958 15.897819753390976, 60.43517111716045 16.1680738803568, 60.18480557360571 16.34271804539089 C59.936749589994335 16.493091040394866, 59.68869360638297 16.643464035398843, 59.11586726407678 16.990714730406093 C58.69792631639936 17.208754255105454, 58.27998536872193 17.426793779804814, 58.00760791279239 17.56889292409717 C57.598106148984144 17.750167207496855, 57.1886043851759 17.93144149089654, 56.864581595147804 18.07487676824742 C56.43132745572455 18.23431829651254, 55.9980733163013 18.393759824777657, 55.69148525146062 18.506587066708033 C55.318709125737115 18.61722506408096, 54.9459330000136 18.72786306145388, 54.49313938623541 18.86224982926107 C54.168079112503115 18.936442715523942, 53.843018838770824 19.010635601786813, 53.274468259676766 19.140403561325773 C52.88441571021257 19.203464232620444, 52.49436316074838 19.26652490391512, 52.04047965284788 19.3399052695533 C51.73988457879959 19.36890331482827, 51.439289504751294 19.39790136010324, 50.7962442896239 19.45993515863156 C50.35528600637325 19.474075832502177, 49.9143277231226 19.488216506372794, 49.54687500000001 19.5 C49.54687500000001 19.5, 49.54687500000001 19.5, 49.546875 19.5 C24.96414059232649 19.5, 0.38140618465298104 19.5, -49.54687499999999 19.5 C-49.82652326561946 19.49103222442391, -50.10617153123892 19.482064448847826, -50.79624428962389 19.45993515863156 C-51.19838953583058 19.42114069038042, -51.600534782037265 19.38234622212928, -52.04047965284787 19.3399052695533 C-52.35132468374728 19.289650255596698, -52.662169714646694 19.2393952416401, -53.27446825967676 19.140403561325773 C-53.753258722317014 19.031122762627895, -54.23204918495727 18.921841963930014, -54.493139386235384 18.862249829261074 C-54.966907431487435 18.721637960289485, -55.440675476739486 18.581026091317895, -55.69148525146059 18.506587066708043 C-56.06451075534625 18.369310233068163, -56.437536259231905 18.232033399428285, -56.8645815951478 18.074876768247425 C-57.29494736342136 17.884366608979644, -57.72531313169492 17.693856449711866, -58.00760791279238 17.568892924097174 C-58.27161080744529 17.431162783058674, -58.53561370209821 17.29343264202017, -59.11586726407678 16.990714730406097 C-59.48268809297546 16.76834578824925, -59.84950892187414 16.545976846092405, -60.184805573605686 16.3427180453909 C-60.586285661163686 16.062662916103317, -60.987765748721685 15.782607786815737, -61.21003034457871 15.627565626425156 C-61.496064189475945 15.399461246799895, -61.78209803437318 15.171356867174635, -62.187328708501866 14.848196188198125 C-62.4051835482248 14.650346186884951, -62.62303838794774 14.452496185571777, -63.112684736767974 14.007812326905697 C-63.42609060710132 13.684195034686029, -63.73949647743467 13.36057774246636, -63.982295942968655 13.109867360095677 C-64.20648273820332 12.846524793823006, -64.43066953343799 12.583182227550335, -64.79258890812658 12.158051136245307 C-65.04881606835909 11.814730084308254, -65.30504322859159 11.4714090323712, -65.54023396464063 11.156274872382316 C-65.74671510247639 10.839064396717657, -65.95319624031212 10.521853921052998, -66.22215887860425 10.108655082055249 C-66.38761020481749 9.814879498600142, -66.55306153103074 9.521103915145035, -66.8355614742735 9.019496659696289 C-67.00067611977886 8.676632565416961, -67.16579076528421 8.333768471137633, -67.37792114880834 7.893275190886686 C-67.48258694850006 7.634748642072578, -67.58725274819177 7.3762220932584714, -67.84700922997033 6.73461856121551 C-67.95401779069184 6.412325825821086, -68.06102635141336 6.090033090426662, -68.24089813421489 5.5482879393051325 C-68.337389159635 5.180325839903328, -68.43388018505509 4.812363740501523, -68.55796928754556 4.339158212148136 C-68.62471268103027 3.996444992825319, -68.69145607451499 3.653731773502503, -68.79691977658177 3.112197953150904 C-68.84066052044437 2.7729533813394047, -68.88440126430699 2.4337088095279054, -68.95676770250937 1.872449005199809 C-68.9824690716643 1.472129434839901, -69.00817044081924 1.071809864479993, -69.03685621591342 0.6250057626472781 C-69.03685621591342 0.18448713324541366, -69.03685621591342 -0.2560314961564508, -69.03685621591342 -0.6250057626472687 C-69.01967016413052 -0.8926923914973068, -69.0024841123476 -1.160379020347345, -68.95676770250937 -1.8724490051997822 C-68.90572532114287 -2.2683236356200456, -68.85468293977638 -2.6641982660403087, -68.79691977658177 -3.112197953150895 C-68.71761927867792 -3.51938924972108, -68.63831878077404 -3.9265805462912655, -68.55796928754556 -4.339158212148126 C-68.46011367067702 -4.712324090160515, -68.36225805380847 -5.085489968172904, -68.24089813421489 -5.548287939305123 C-68.1521430949535 -5.815603976365325, -68.06338805569212 -6.082920013425527, -67.84700922997033 -6.734618561215485 C-67.68132720751301 -7.143856359929055, -67.51564518505569 -7.553094158642626, -67.37792114880834 -7.893275190886676 C-67.21205747221677 -8.237694664243234, -67.0461937956252 -8.582114137599792, -66.8355614742735 -9.019496659696282 C-66.71127823878973 -9.240174129339993, -66.58699500330596 -9.460851598983702, -66.22215887860425 -10.108655082055243 C-65.95663578586476 -10.516569855436844, -65.69111269312528 -10.924484628818446, -65.54023396464063 -11.156274872382308 C-65.3735473560104 -11.379619742484369, -65.20686074738019 -11.602964612586431, -64.79258890812659 -12.158051136245302 C-64.49591891244286 -12.506536594176378, -64.19924891675913 -12.855022052107454, -63.98229594296866 -13.10986736009567 C-63.681798901151744 -13.42015522703759, -63.38130185933483 -13.73044309397951, -63.112684736767996 -14.007812326905677 C-62.89251267000777 -14.207766772503652, -62.67234060324755 -14.407721218101626, -62.18732870850189 -14.848196188198107 C-61.81280128611934 -15.146871840954912, -61.43827386373679 -15.445547493711716, -61.21003034457872 -15.627565626425149 C-60.86716593534577 -15.866732995945, -60.52430152611281 -16.10590036546485, -60.184805573605715 -16.342718045390885 C-59.76150331459369 -16.599326362404167, -59.33820105558166 -16.855934679417448, -59.11586726407679 -16.99071473040609 C-58.68065523324113 -17.21776456812644, -58.245443202405475 -17.444814405846795, -58.00760791279239 -17.56889292409717 C-57.65304031470827 -17.72584948189491, -57.29847271662416 -17.882806039692653, -56.864581595147804 -18.07487676824742 C-56.46112752968274 -18.22335159382706, -56.05767346421767 -18.371826419406705, -55.69148525146062 -18.506587066708033 C-55.26085056998545 -18.634397179722292, -54.83021588851028 -18.76220729273655, -54.49313938623541 -18.862249829261067 C-54.018134784124 -18.970666529998287, -53.54313018201259 -19.07908323073551, -53.274468259676766 -19.140403561325773 C-52.81003053835502 -19.21549025034075, -52.34559281703328 -19.29057693935573, -52.04047965284788 -19.3399052695533 C-51.715657573167164 -19.37124046492439, -51.39083549348645 -19.402575660295483, -50.7962442896239 -19.45993515863156 C-50.30157655786652 -19.47579818997669, -49.806908826109144 -19.491661221321817, -49.54687500000001 -19.5 C-49.54687500000001 -19.5, -49.54687500000001 -19.5, -49.546875 -19.5" stroke="none" stroke-width="0" fill="#4A90D9" style="fill:#4A90D9 !important;stroke:#1f3a5a !important"/><path d="M-49.546875 -19.5 C-18.263786564432518 -19.5, 13.019301871134964 -19.5, 49.546875 -19.5 M-49.546875 -19.5 C-25.263700219685944 -19.5, -0.9805254393718883 -19.5, 49.546875 -19.5 M49.546875 -19.5 C49.546875 -19.5, 49.546875 -19.5, 49.546875 -19.5 M49.546875 -19.5 C49.546875 -19.5, 49.546875 -19.5, 49.546875 -19.5 M49.546875 -19.5 C49.85809260073606 -19.490019857292705, 50.169310201472115 -19.480039714585413, 50.7962442896239 -19.45993515863156 M49.546875 -19.5 C49.988027976972084 -19.485853082680684, 50.42918095394417 -19.47170616536137, 50.7962442896239 -19.45993515863156 M50.7962442896239 -19.45993515863156 C51.20568261762598 -19.42043713555083, 51.615120945628064 -19.380939112470102, 52.040479652847864 -19.3399052695533 M50.7962442896239 -19.45993515863156 C51.2465815491053 -19.416491664819183, 51.69691880858671 -19.373048171006804, 52.040479652847864 -19.3399052695533 M52.040479652847864 -19.3399052695533 C52.291836728123435 -19.299267806925975, 52.543193803399014 -19.258630344298652, 53.27446825967676 -19.140403561325776 M52.040479652847864 -19.3399052695533 C52.293854931828015 -19.298941519402423, 52.547230210808166 -19.25797776925155, 53.27446825967676 -19.140403561325776 M53.27446825967676 -19.140403561325776 C53.537437936396294 -19.080382448652056, 53.80040761311583 -19.020361335978333, 54.49313938623539 -18.862249829261074 M53.27446825967676 -19.140403561325776 C53.75655008483614 -19.030371530611053, 54.238631909995526 -18.92033949989633, 54.49313938623539 -18.862249829261074 M54.49313938623539 -18.862249829261074 C54.838984575859286 -18.75960479235915, 55.18482976548317 -18.656959755457226, 55.691485251460605 -18.50658706670804 M54.49313938623539 -18.862249829261074 C54.793559565004784 -18.773086697140016, 55.09397974377417 -18.68392356501896, 55.691485251460605 -18.50658706670804 M55.691485251460605 -18.50658706670804 C55.95856984794276 -18.40829746629966, 56.22565444442491 -18.310007865891283, 56.8645815951478 -18.074876768247425 M55.691485251460605 -18.50658706670804 C56.074465169041495 -18.36564691681072, 56.45744508662239 -18.224706766913403, 56.8645815951478 -18.074876768247425 M56.8645815951478 -18.074876768247425 C57.12390399553368 -17.960082434122285, 57.383226395919564 -17.845288099997145, 58.00760791279238 -17.568892924097174 M56.8645815951478 -18.074876768247425 C57.22562566347619 -17.915053269190206, 57.58666973180457 -17.755229770132992, 58.00760791279238 -17.568892924097174 M58.00760791279238 -17.568892924097174 C58.256980441123595 -17.43879543579751, 58.5063529694548 -17.308697947497844, 59.11586726407678 -16.990714730406097 M58.00760791279238 -17.568892924097174 C58.35998088989422 -17.38506016764881, 58.712353866996054 -17.20122741120045, 59.11586726407678 -16.990714730406097 M59.11586726407678 -16.990714730406097 C59.496131246375285 -16.76019646965754, 59.87639522867378 -16.529678208908983, 60.1848055736057 -16.342718045390892 M59.11586726407678 -16.990714730406097 C59.421476891001085 -16.805452378603068, 59.727086517925386 -16.620190026800042, 60.1848055736057 -16.342718045390892 M60.1848055736057 -16.342718045390892 C60.55618294875431 -16.08366126515468, 60.927560323902924 -15.824604484918469, 61.21003034457871 -15.627565626425154 M60.1848055736057 -16.342718045390892 C60.54149828113869 -16.093904653594322, 60.898190988671686 -15.845091261797748, 61.21003034457871 -15.627565626425154 M61.21003034457871 -15.627565626425154 C61.407536170713804 -15.470059985933185, 61.60504199684889 -15.312554345441214, 62.187328708501866 -14.848196188198123 M61.21003034457871 -15.627565626425154 C61.55183761698131 -15.354983422557602, 61.89364488938391 -15.08240121869005, 62.187328708501866 -14.848196188198123 M62.187328708501866 -14.848196188198123 C62.55716803840587 -14.512317894191757, 62.92700736830987 -14.176439600185391, 63.11268473676799 -14.007812326905688 M62.187328708501866 -14.848196188198123 C62.461000162377736 -14.59965501473794, 62.73467161625361 -14.351113841277755, 63.11268473676799 -14.007812326905688 M63.11268473676799 -14.007812326905688 C63.38419542778692 -13.727455246986345, 63.655706118805846 -13.447098167067002, 63.98229594296865 -13.10986736009568 M63.11268473676799 -14.007812326905688 C63.4261992974417 -13.68408280298595, 63.73971385811541 -13.36035327906621, 63.98229594296865 -13.10986736009568 M63.98229594296865 -13.10986736009568 C64.18714777179464 -12.8692367455574, 64.39199960062064 -12.628606131019117, 64.79258890812658 -12.158051136245305 M63.98229594296865 -13.10986736009568 C64.23534287661509 -12.812624033056146, 64.48838981026154 -12.515380706016611, 64.79258890812658 -12.158051136245305 M64.79258890812658 -12.158051136245305 C65.01402190660278 -11.861351091248352, 65.23545490507898 -11.564651046251399, 65.54023396464063 -11.156274872382312 M64.79258890812658 -12.158051136245305 C65.0020465679746 -11.877396954034321, 65.21150422782262 -11.596742771823337, 65.54023396464063 -11.156274872382312 M65.54023396464063 -11.156274872382312 C65.72922307091262 -10.86593685446773, 65.91821217718463 -10.57559883655315, 66.22215887860425 -10.108655082055241 M65.54023396464063 -11.156274872382312 C65.75157936464264 -10.831591583793, 65.96292476464464 -10.506908295203685, 66.22215887860425 -10.108655082055241 M66.22215887860425 -10.108655082055241 C66.36396890166078 -9.856857026296414, 66.5057789247173 -9.605058970537584, 66.8355614742735 -9.019496659696287 M66.22215887860425 -10.108655082055241 C66.38141304959898 -9.825883175220609, 66.54066722059372 -9.543111268385976, 66.8355614742735 -9.019496659696287 M66.8355614742735 -9.019496659696287 C67.0290936405007 -8.617622975600511, 67.2226258067279 -8.215749291504736, 67.37792114880834 -7.893275190886684 M66.8355614742735 -9.019496659696287 C66.9613042321445 -8.758389132513136, 67.08704699001551 -8.497281605329984, 67.37792114880834 -7.893275190886684 M67.37792114880834 -7.893275190886684 C67.52539306867078 -7.529016697650862, 67.6728649885332 -7.1647582044150395, 67.84700922997033 -6.734618561215508 M67.37792114880834 -7.893275190886684 C67.48823416897784 -7.62079989831088, 67.59854718914733 -7.348324605735075, 67.84700922997033 -6.734618561215508 M67.84700922997033 -6.734618561215508 C67.96478989802273 -6.37988195484269, 68.08257056607513 -6.025145348469872, 68.24089813421489 -5.548287939305138 M67.84700922997033 -6.734618561215508 C67.99982151478203 -6.274372306693819, 68.15263379959373 -5.81412605217213, 68.24089813421489 -5.548287939305138 M68.24089813421489 -5.548287939305138 C68.34857101133241 -5.137684593135885, 68.45624388844993 -4.727081246966634, 68.55796928754556 -4.339158212148133 M68.24089813421489 -5.548287939305138 C68.34345025656881 -5.157212250398605, 68.44600237892276 -4.766136561492073, 68.55796928754556 -4.339158212148133 M68.55796928754556 -4.339158212148133 C68.61249228609051 -4.059194138059626, 68.66701528463547 -3.7792300639711183, 68.79691977658177 -3.1121979531509023 M68.55796928754556 -4.339158212148133 C68.64058375901308 -3.914950361737148, 68.72319823048059 -3.4907425113261623, 68.79691977658177 -3.1121979531509023 M68.79691977658177 -3.1121979531509023 C68.85109074817053 -2.692058594776747, 68.9052617197593 -2.271919236402591, 68.95676770250937 -1.872449005199798 M68.79691977658177 -3.1121979531509023 C68.84032229184211 -2.775576615587741, 68.88372480710247 -2.438955278024579, 68.95676770250937 -1.872449005199798 M68.95676770250937 -1.872449005199798 C68.97830214959677 -1.5370326095206337, 68.99983659668418 -1.2016162138414694, 69.03685621591342 -0.6250057626472757 M68.95676770250937 -1.872449005199798 C68.97593716986752 -1.5738690777809632, 68.99510663722567 -1.2752891503621282, 69.03685621591342 -0.6250057626472757 M69.03685621591342 -0.6250057626472757 C69.03685621591342 -0.2418639398941564, 69.03685621591342 0.14127788285896292, 69.03685621591342 0.625005762647271 M69.03685621591342 -0.6250057626472757 C69.03685621591342 -0.12829815296903768, 69.03685621591342 0.36840945670920033, 69.03685621591342 0.625005762647271 M69.03685621591342 0.625005762647271 C69.01127661929185 1.0234286275069697, 68.98569702267028 1.4218514923666685, 68.95676770250937 1.8724490051997846 M69.03685621591342 0.625005762647271 C69.02019149008912 0.8845723188853091, 69.00352676426482 1.144138875123347, 68.95676770250937 1.8724490051997846 M68.95676770250937 1.8724490051997846 C68.91623185339418 2.186837046228421, 68.87569600427898 2.501225087257057, 68.79691977658177 3.1121979531508885 M68.95676770250937 1.8724490051997846 C68.91545784489173 2.192840103328023, 68.87414798727411 2.5132312014562617, 68.79691977658177 3.1121979531508885 M68.79691977658177 3.1121979531508885 C68.71994939136466 3.5074246135441047, 68.64297900614754 3.9026512739373205, 68.55796928754556 4.339158212148129 M68.79691977658177 3.1121979531508885 C68.70336838990123 3.592564551662939, 68.60981700322068 4.072931150174989, 68.55796928754556 4.339158212148129 M68.55796928754556 4.339158212148129 C68.48823098274106 4.605100593140222, 68.41849267793654 4.8710429741323145, 68.24089813421489 5.548287939305125 M68.55796928754556 4.339158212148129 C68.49148412890352 4.592694936900269, 68.42499897026147 4.84623166165241, 68.24089813421489 5.548287939305125 M68.24089813421489 5.548287939305125 C68.08657170581127 6.013094553079667, 67.93224527740763 6.477901166854208, 67.84700922997033 6.734618561215495 M68.24089813421489 5.548287939305125 C68.14057009991022 5.850459993529341, 68.04024206560554 6.152632047753558, 67.84700922997033 6.734618561215495 M67.84700922997033 6.734618561215495 C67.69950008449611 7.098969002432142, 67.55199093902188 7.463319443648789, 67.37792114880834 7.893275190886679 M67.84700922997033 6.734618561215495 C67.72865615359481 7.026952948064087, 67.6103030772193 7.31928733491268, 67.37792114880834 7.893275190886679 M67.37792114880834 7.893275190886679 C67.22477102438982 8.211294701129459, 67.0716208999713 8.529314211372238, 66.8355614742735 9.019496659696284 M67.37792114880834 7.893275190886679 C67.21777205014858 8.225828220895433, 67.05762295148884 8.558381250904189, 66.8355614742735 9.019496659696284 M66.8355614742735 9.019496659696284 C66.60933978818053 9.421176170784054, 66.38311810208758 9.822855681871827, 66.22215887860425 10.108655082055236 M66.8355614742735 9.019496659696284 C66.61479042013904 9.41149802180539, 66.39401936600458 9.803499383914497, 66.22215887860425 10.108655082055236 M66.22215887860425 10.108655082055236 C65.96647932823947 10.501447530988047, 65.71079977787471 10.894239979920856, 65.54023396464065 11.156274872382301 M66.22215887860425 10.108655082055236 C66.0647006193603 10.350553251716802, 65.90724236011634 10.592451421378367, 65.54023396464065 11.156274872382301 M65.54023396464065 11.156274872382301 C65.3057899048325 11.470408554231998, 65.07134584502434 11.784542236081695, 64.79258890812659 12.158051136245302 M65.54023396464065 11.156274872382301 C65.36069901075274 11.396835354621336, 65.18116405686482 11.63739583686037, 64.79258890812659 12.158051136245302 M64.79258890812659 12.158051136245302 C64.62201497835596 12.358416980085432, 64.45144104858535 12.558782823925561, 63.98229594296866 13.10986736009567 M64.79258890812659 12.158051136245302 C64.61587193153098 12.365632952435334, 64.43915495493536 12.573214768625366, 63.98229594296866 13.10986736009567 M63.98229594296866 13.10986736009567 C63.73718737442061 13.362962080909268, 63.492078805872545 13.616056801722864, 63.11268473676799 14.007812326905684 M63.98229594296866 13.10986736009567 C63.65822953870097 13.444492528848663, 63.334163134433275 13.779117697601656, 63.11268473676799 14.007812326905684 M63.11268473676799 14.007812326905684 C62.840011795400116 14.255446677725303, 62.56733885403224 14.50308102854492, 62.18732870850189 14.848196188198111 M63.11268473676799 14.007812326905684 C62.92732160259221 14.176154220924355, 62.74195846841643 14.344496114943025, 62.18732870850189 14.848196188198111 M62.18732870850189 14.848196188198111 C61.82540751231127 15.136818711032616, 61.46348631612065 15.42544123386712, 61.21003034457871 15.627565626425152 M62.18732870850189 14.848196188198111 C61.94969833118959 15.037700090494754, 61.712067953877295 15.227203992791395, 61.21003034457871 15.627565626425152 M61.21003034457871 15.627565626425152 C60.81454135853304 15.90344162264834, 60.41905237248737 16.17931761887153, 60.18480557360571 16.34271804539089 M61.21003034457871 15.627565626425152 C60.947639779634656 15.81059792582564, 60.6852492146906 15.993630225226127, 60.18480557360571 16.34271804539089 M60.18480557360571 16.34271804539089 C59.96565445093211 16.475568743830575, 59.7465033282585 16.60841944227026, 59.11586726407678 16.990714730406093 M60.18480557360571 16.34271804539089 C59.75995236845154 16.600266555069908, 59.33509916329737 16.85781506474893, 59.11586726407678 16.990714730406093 M59.11586726407678 16.990714730406093 C58.84845793167128 17.130222007838192, 58.58104859926578 17.269729285270294, 58.00760791279239 17.56889292409717 M59.11586726407678 16.990714730406093 C58.768636908510274 17.171864584493484, 58.421406552943765 17.353014438580875, 58.00760791279239 17.56889292409717 M58.00760791279239 17.56889292409717 C57.75497195967183 17.680727366364362, 57.502336006551275 17.79256180863155, 56.864581595147804 18.07487676824742 M58.00760791279239 17.56889292409717 C57.70926307278496 17.700961334683228, 57.41091823277752 17.833029745269283, 56.864581595147804 18.07487676824742 M56.864581595147804 18.07487676824742 C56.537586104302875 18.195214131591534, 56.21059061345795 18.31555149493565, 55.69148525146062 18.506587066708033 M56.864581595147804 18.07487676824742 C56.4278620151523 18.23559361067731, 55.99114243515679 18.3963104531072, 55.69148525146062 18.506587066708033 M55.69148525146062 18.506587066708033 C55.252461281350726 18.636887076552807, 54.81343731124083 18.767187086397577, 54.49313938623541 18.86224982926107 M55.69148525146062 18.506587066708033 C55.419820887548035 18.587215623921942, 55.14815652363545 18.667844181135855, 54.49313938623541 18.86224982926107 M54.49313938623541 18.86224982926107 C54.13134401786973 18.94482726115512, 53.76954864950405 19.027404693049164, 53.274468259676766 19.140403561325773 M54.49313938623541 18.86224982926107 C54.082957918612934 18.955871072561674, 53.672776450990455 19.04949231586228, 53.274468259676766 19.140403561325773 M53.274468259676766 19.140403561325773 C52.83457108559596 19.211522724977623, 52.39467391151516 19.28264188862947, 52.04047965284788 19.3399052695533 M53.274468259676766 19.140403561325773 C52.910437031787076 19.19925730714664, 52.54640580389739 19.25811105296751, 52.04047965284788 19.3399052695533 M52.04047965284788 19.3399052695533 C51.78772826396276 19.36428789206103, 51.53497687507765 19.388670514568755, 50.7962442896239 19.45993515863156 M52.04047965284788 19.3399052695533 C51.57939067997549 19.384385968225676, 51.1183017071031 19.428866666898053, 50.7962442896239 19.45993515863156 M50.7962442896239 19.45993515863156 C50.42827602312089 19.47173518473153, 50.060307756617874 19.4835352108315, 49.54687500000001 19.5 M50.7962442896239 19.45993515863156 C50.36251364543189 19.473844056185314, 49.928783001239886 19.487752953739065, 49.54687500000001 19.5 M49.54687500000001 19.5 C49.54687500000001 19.5, 49.546875 19.5, 49.546875 19.5 M49.54687500000001 19.5 C49.54687500000001 19.5, 49.546875 19.5, 49.546875 19.5 M49.546875 19.5 C25.190799273280593 19.5, 0.834723546561186 19.5, -49.54687499999999 19.5 M49.546875 19.5 C18.287024072442705 19.5, -12.97282685511459 19.5, -49.54687499999999 19.5 M-49.54687499999999 19.5 C-50.026706335261586 19.484612743013198, -50.50653767052318 19.469225486026392, -50.79624428962389 19.45993515863156 M-49.54687499999999 19.5 C-49.81165598276567 19.491508989247624, -50.07643696553136 19.483017978495244, -50.79624428962389 19.45993515863156 M-50.79624428962389 19.45993515863156 C-51.086394149262404 19.431944750628492, -51.37654400890092 19.403954342625426, -52.04047965284787 19.3399052695533 M-50.79624428962389 19.45993515863156 C-51.12935988505013 19.427799897770907, -51.46247548047637 19.395664636910254, -52.04047965284787 19.3399052695533 M-52.04047965284787 19.3399052695533 C-52.32590025306313 19.29376068038031, -52.61132085327839 19.247616091207316, -53.27446825967676 19.140403561325773 M-52.04047965284787 19.3399052695533 C-52.31188063133483 19.29602726409755, -52.58328160982178 19.2521492586418, -53.27446825967676 19.140403561325773 M-53.27446825967676 19.140403561325773 C-53.531746113734165 19.081681570032067, -53.78902396779157 19.022959578738366, -54.493139386235384 18.862249829261074 M-53.27446825967676 19.140403561325773 C-53.74684044297542 19.032587693004427, -54.219212626274086 18.924771824683077, -54.493139386235384 18.862249829261074 M-54.493139386235384 18.862249829261074 C-54.75224741109649 18.785347927568075, -55.0113554359576 18.708446025875077, -55.69148525146059 18.506587066708043 M-54.493139386235384 18.862249829261074 C-54.94975113075101 18.726729860292796, -55.40636287526664 18.591209891324514, -55.69148525146059 18.506587066708043 M-55.69148525146059 18.506587066708043 C-56.116497083476084 18.350178783760036, -56.541508915491576 18.19377050081203, -56.8645815951478 18.074876768247425 M-55.69148525146059 18.506587066708043 C-56.053585897996506 18.373330681561143, -56.41568654453243 18.240074296414242, -56.8645815951478 18.074876768247425 M-56.8645815951478 18.074876768247425 C-57.182124749596525 17.93430983335597, -57.499667904045246 17.79374289846452, -58.00760791279238 17.568892924097174 M-56.8645815951478 18.074876768247425 C-57.20330270346332 17.92493498140082, -57.542023811778854 17.774993194554217, -58.00760791279238 17.568892924097174 M-58.00760791279238 17.568892924097174 C-58.441822851634356 17.34236326863126, -58.876037790476325 17.115833613165346, -59.11586726407678 16.990714730406097 M-58.00760791279238 17.568892924097174 C-58.349516992974195 17.390519175969537, -58.691426073156016 17.212145427841904, -59.11586726407678 16.990714730406097 M-59.11586726407678 16.990714730406097 C-59.50968482653745 16.751980209713558, -59.90350238899811 16.513245689021016, -60.184805573605686 16.3427180453909 M-59.11586726407678 16.990714730406097 C-59.48355894059407 16.767817875305177, -59.85125061711137 16.544921020204256, -60.184805573605686 16.3427180453909 M-60.184805573605686 16.3427180453909 C-60.44041803248348 16.16441385936276, -60.69603049136126 15.986109673334619, -61.21003034457871 15.627565626425156 M-60.184805573605686 16.3427180453909 C-60.51881808748112 16.109725374880085, -60.85283060135655 15.87673270436927, -61.21003034457871 15.627565626425156 M-61.21003034457871 15.627565626425156 C-61.46105614494716 15.42737923070841, -61.7120819453156 15.227192834991667, -62.187328708501866 14.848196188198125 M-61.21003034457871 15.627565626425156 C-61.40776393266957 15.469878351834465, -61.605497520760416 15.312191077243774, -62.187328708501866 14.848196188198125 M-62.187328708501866 14.848196188198125 C-62.42464554888085 14.632671312825448, -62.661962389259834 14.41714643745277, -63.112684736767974 14.007812326905697 M-62.187328708501866 14.848196188198125 C-62.40083648373482 14.654294075837727, -62.614344258967776 14.46039196347733, -63.112684736767974 14.007812326905697 M-63.112684736767974 14.007812326905697 C-63.453373675917504 13.656023026151713, -63.794062615067034 13.30423372539773, -63.982295942968655 13.109867360095677 M-63.112684736767974 14.007812326905697 C-63.36342033360456 13.748907237396583, -63.614155930441136 13.49000214788747, -63.982295942968655 13.109867360095677 M-63.982295942968655 13.109867360095677 C-64.14904128307289 12.913998795530608, -64.31578662317712 12.718130230965539, -64.79258890812658 12.158051136245307 M-63.982295942968655 13.109867360095677 C-64.28977407350686 12.74868605196422, -64.59725220404508 12.387504743832764, -64.79258890812658 12.158051136245307 M-64.79258890812658 12.158051136245307 C-65.03776785570442 11.829533682752622, -65.28294680328226 11.501016229259937, -65.54023396464063 11.156274872382316 M-64.79258890812658 12.158051136245307 C-65.02650137173733 11.844629744870721, -65.26041383534807 11.531208353496137, -65.54023396464063 11.156274872382316 M-65.54023396464063 11.156274872382316 C-65.68906811421299 10.927625651074036, -65.83790226378534 10.698976429765755, -66.22215887860425 10.108655082055249 M-65.54023396464063 11.156274872382316 C-65.75224858470916 10.830563482060061, -65.96426320477771 10.504852091737806, -66.22215887860425 10.108655082055249 M-66.22215887860425 10.108655082055249 C-66.45315965029367 9.698489820556079, -66.68416042198308 9.28832455905691, -66.8355614742735 9.019496659696289 M-66.22215887860425 10.108655082055249 C-66.3846044410785 9.820216536485301, -66.54705000355276 9.531777990915353, -66.8355614742735 9.019496659696289 M-66.8355614742735 9.019496659696289 C-67.03945861775809 8.596099878550566, -67.24335576124267 8.172703097404844, -67.37792114880834 7.893275190886686 M-66.8355614742735 9.019496659696289 C-67.02417049616956 8.627845990142553, -67.2127795180656 8.236195320588818, -67.37792114880834 7.893275190886686 M-67.37792114880834 7.893275190886686 C-67.51990756262997 7.542566003626711, -67.6618939764516 7.191856816366736, -67.84700922997033 6.73461856121551 M-67.37792114880834 7.893275190886686 C-67.53233561579924 7.511868472018543, -67.68675008279014 7.130461753150399, -67.84700922997033 6.73461856121551 M-67.84700922997033 6.73461856121551 C-68.00082581610877 6.271347511111346, -68.15464240224722 5.8080764610071824, -68.24089813421489 5.5482879393051325 M-67.84700922997033 6.73461856121551 C-67.94913665861252 6.42702701794125, -68.0512640872547 6.1194354746669894, -68.24089813421489 5.5482879393051325 M-68.24089813421489 5.5482879393051325 C-68.3344452578345 5.1915522133636856, -68.42799238145412 4.834816487422238, -68.55796928754556 4.339158212148136 M-68.24089813421489 5.5482879393051325 C-68.35946837084474 5.0961282383698805, -68.47803860747459 4.6439685374346285, -68.55796928754556 4.339158212148136 M-68.55796928754556 4.339158212148136 C-68.61177767779424 4.062863500628519, -68.6655860680429 3.786568789108902, -68.79691977658177 3.112197953150904 M-68.55796928754556 4.339158212148136 C-68.62546939510209 3.9925594259981407, -68.69296950265861 3.6459606398481457, -68.79691977658177 3.112197953150904 M-68.79691977658177 3.112197953150904 C-68.83413863486452 2.8235358380048727, -68.87135749314724 2.5348737228588414, -68.95676770250937 1.872449005199809 M-68.79691977658177 3.112197953150904 C-68.83501969925084 2.816702476610359, -68.8731196219199 2.5212070000698135, -68.95676770250937 1.872449005199809 M-68.95676770250937 1.872449005199809 C-68.9763058399353 1.5681267438900803, -68.99584397736125 1.2638044825803516, -69.03685621591342 0.6250057626472781 M-68.95676770250937 1.872449005199809 C-68.97976145101828 1.5143028119539128, -69.00275519952717 1.1561566187080168, -69.03685621591342 0.6250057626472781 M-69.03685621591342 0.6250057626472781 C-69.03685621591342 0.1499157474955829, -69.03685621591342 -0.32517426765611235, -69.03685621591342 -0.6250057626472687 M-69.03685621591342 0.6250057626472781 C-69.03685621591342 0.21155359915975136, -69.03685621591342 -0.20189856432777542, -69.03685621591342 -0.6250057626472687 M-69.03685621591342 -0.6250057626472687 C-69.01504052876864 -0.9648026992329632, -68.99322484162386 -1.3045996358186578, -68.95676770250937 -1.8724490051997822 M-69.03685621591342 -0.6250057626472687 C-69.01859606731064 -0.9094223164622735, -69.00033591870785 -1.1938388702772782, -68.95676770250937 -1.8724490051997822 M-68.95676770250937 -1.8724490051997822 C-68.90757079946817 -2.2540104701598747, -68.858373896427 -2.635571935119967, -68.79691977658177 -3.112197953150895 M-68.95676770250937 -1.8724490051997822 C-68.91136092447536 -2.2246150090489856, -68.86595414644137 -2.5767810128981887, -68.79691977658177 -3.112197953150895 M-68.79691977658177 -3.112197953150895 C-68.70543172302072 -3.581969772179899, -68.61394366945969 -4.051741591208903, -68.55796928754556 -4.339158212148126 M-68.79691977658177 -3.112197953150895 C-68.73854824836654 -3.4119234137092804, -68.6801767201513 -3.7116488742676657, -68.55796928754556 -4.339158212148126 M-68.55796928754556 -4.339158212148126 C-68.46177882538251 -4.705974133585858, -68.36558836321946 -5.072790055023591, -68.24089813421489 -5.548287939305123 M-68.55796928754556 -4.339158212148126 C-68.44788489416295 -4.758957714993928, -68.33780050078033 -5.1787572178397285, -68.24089813421489 -5.548287939305123 M-68.24089813421489 -5.548287939305123 C-68.14384070713848 -5.840609445658298, -68.04678328006207 -6.132930952011474, -67.84700922997033 -6.734618561215485 M-68.24089813421489 -5.548287939305123 C-68.1122596403889 -5.9357265869483875, -67.98362114656291 -6.323165234591653, -67.84700922997033 -6.734618561215485 M-67.84700922997033 -6.734618561215485 C-67.70141934234887 -7.094228398429486, -67.5558294547274 -7.453838235643487, -67.37792114880834 -7.893275190886676 M-67.84700922997033 -6.734618561215485 C-67.66252474196189 -7.1902988133612435, -67.47804025395347 -7.645979065507002, -67.37792114880834 -7.893275190886676 M-67.37792114880834 -7.893275190886676 C-67.25136950325209 -8.156062390655672, -67.12481785769585 -8.418849590424669, -66.8355614742735 -9.019496659696282 M-67.37792114880834 -7.893275190886676 C-67.22775541839363 -8.205097543124754, -67.0775896879789 -8.516919895362834, -66.8355614742735 -9.019496659696282 M-66.8355614742735 -9.019496659696282 C-66.60170575147517 -9.43473117598449, -66.36785002867683 -9.849965692272697, -66.22215887860425 -10.108655082055243 M-66.8355614742735 -9.019496659696282 C-66.59121747979124 -9.453354164411959, -66.34687348530899 -9.887211669127636, -66.22215887860425 -10.108655082055243 M-66.22215887860425 -10.108655082055243 C-66.04236013454835 -10.384874235648113, -65.86256139049243 -10.66109338924098, -65.54023396464063 -11.156274872382308 M-66.22215887860425 -10.108655082055243 C-66.067887046127 -10.345658044527756, -65.91361521364975 -10.582661007000269, -65.54023396464063 -11.156274872382308 M-65.54023396464063 -11.156274872382308 C-65.2981964162242 -11.48058313718607, -65.05615886780775 -11.804891401989831, -64.79258890812659 -12.158051136245302 M-65.54023396464063 -11.156274872382308 C-65.28871380669143 -11.493288970076467, -65.03719364874223 -11.830303067770625, -64.79258890812659 -12.158051136245302 M-64.79258890812659 -12.158051136245302 C-64.49016296697873 -12.513297855241127, -64.18773702583086 -12.868544574236953, -63.98229594296866 -13.10986736009567 M-64.79258890812659 -12.158051136245302 C-64.54360655245159 -12.450519978718535, -64.2946241967766 -12.74298882119177, -63.98229594296866 -13.10986736009567 M-63.98229594296866 -13.10986736009567 C-63.78626808215777 -13.312282220569601, -63.590240221346875 -13.514697081043533, -63.112684736767996 -14.007812326905677 M-63.98229594296866 -13.10986736009567 C-63.72155679369713 -13.3791019388008, -63.460817644425596 -13.648336517505928, -63.112684736767996 -14.007812326905677 M-63.112684736767996 -14.007812326905677 C-62.76672064990034 -14.322007756890748, -62.42075656303269 -14.63620318687582, -62.18732870850189 -14.848196188198107 M-63.112684736767996 -14.007812326905677 C-62.86573069530926 -14.232089453312616, -62.61877665385053 -14.456366579719557, -62.18732870850189 -14.848196188198107 M-62.18732870850189 -14.848196188198107 C-61.94626550041618 -15.04043768168508, -61.705202292330476 -15.232679175172052, -61.21003034457872 -15.627565626425149 M-62.18732870850189 -14.848196188198107 C-61.94385912294218 -15.042356703684204, -61.70038953738247 -15.236517219170299, -61.21003034457872 -15.627565626425149 M-61.21003034457872 -15.627565626425149 C-60.92093709343055 -15.829224563780972, -60.63184384228238 -16.030883501136795, -60.184805573605715 -16.342718045390885 M-61.21003034457872 -15.627565626425149 C-60.80493748250525 -15.910140870820236, -60.399844620431786 -16.192716115215323, -60.184805573605715 -16.342718045390885 M-60.184805573605715 -16.342718045390885 C-59.91797233424148 -16.504473923179653, -59.65113909487725 -16.66622980096842, -59.11586726407679 -16.99071473040609 M-60.184805573605715 -16.342718045390885 C-59.83129371620388 -16.557019010814148, -59.47778185880204 -16.771319976237407, -59.11586726407679 -16.99071473040609 M-59.11586726407679 -16.99071473040609 C-58.89014075268781 -17.10847610681299, -58.66441424129883 -17.22623748321989, -58.00760791279239 -17.56889292409717 M-59.11586726407679 -16.99071473040609 C-58.78166170838826 -17.16506955473992, -58.44745615269974 -17.339424379073748, -58.00760791279239 -17.56889292409717 M-58.00760791279239 -17.56889292409717 C-57.65578567894694 -17.724634190584787, -57.3039634451015 -17.880375457072407, -56.864581595147804 -18.07487676824742 M-58.00760791279239 -17.56889292409717 C-57.59093332647002 -17.753342403249636, -57.17425874014766 -17.937791882402106, -56.864581595147804 -18.07487676824742 M-56.864581595147804 -18.07487676824742 C-56.62898356014051 -18.161579022974465, -56.393385525133226 -18.24828127770151, -55.69148525146062 -18.506587066708033 M-56.864581595147804 -18.07487676824742 C-56.57888051840949 -18.180017405478925, -56.29317944167117 -18.285158042710428, -55.69148525146062 -18.506587066708033 M-55.69148525146062 -18.506587066708033 C-55.36860670649096 -18.602415724030962, -55.045728161521296 -18.698244381353888, -54.49313938623541 -18.862249829261067 M-55.69148525146062 -18.506587066708033 C-55.28122270589288 -18.628350836720493, -54.87096016032513 -18.75011460673295, -54.49313938623541 -18.862249829261067 M-54.49313938623541 -18.862249829261067 C-54.1870862518438 -18.932104460002606, -53.88103311745219 -19.00195909074414, -53.274468259676766 -19.140403561325773 M-54.49313938623541 -18.862249829261067 C-54.12957709565635 -18.945230549620074, -53.76601480507729 -19.02821126997908, -53.274468259676766 -19.140403561325773 M-53.274468259676766 -19.140403561325773 C-52.84211765172826 -19.210302654689848, -52.409767043779745 -19.280201748053923, -52.04047965284788 -19.3399052695533 M-53.274468259676766 -19.140403561325773 C-52.899051385999876 -19.201098050060516, -52.523634512322985 -19.26179253879526, -52.04047965284788 -19.3399052695533 M-52.04047965284788 -19.3399052695533 C-51.599412850224894 -19.3824544535419, -51.1583460476019 -19.425003637530498, -50.7962442896239 -19.45993515863156 M-52.04047965284788 -19.3399052695533 C-51.62427960165546 -19.380055587938035, -51.20807955046304 -19.420205906322774, -50.7962442896239 -19.45993515863156 M-50.7962442896239 -19.45993515863156 C-50.32473344227797 -19.475055593765756, -49.853222594932035 -19.49017602889995, -49.54687500000001 -19.5 M-50.7962442896239 -19.45993515863156 C-50.5255515341604 -19.468615748427787, -50.2548587786969 -19.47729633822402, -49.54687500000001 -19.5 M-49.54687500000001 -19.5 C-49.54687500000001 -19.5, -49.546875 -19.5, -49.546875 -19.5 M-49.54687500000001 -19.5 C-49.54687500000001 -19.5, -49.54687500000001 -19.5, -49.546875 -19.5" stroke="#1f3a5a" stroke-width="1.3" fill="none" stroke-dasharray="0 0" style="fill:#4A90D9 !important;stroke:#1f3a5a !important"/></g><g class="label" style="color:#fff !important" transform="translate(-56.671875, -12)"><rect/><foreignObject width="113.34375" height="24"><div style="color: rgb(255, 255, 255) !important; display: table-cell; white-space: nowrap; line-height: 1.5; max-width: 200px; text-align: center;" xmlns="http://www.w3.org/1999/xhtml"><span style="color:#fff !important" class="nodeLabel"><p>Arch-*（青）: 設計</p></span></div></foreignObject></g></g><g class="node default dev" id="my-svg-flowchart-ld-5" data-look="classic" transform="translate(152.7265625, 159)"><rect class="basic label-container" style="fill:#50C878 !important;stroke:#1b5e20 !important" x="-84.453125" y="-27" width="168.90625" height="54"/><g class="label" style="color:#111 !important" transform="translate(-54.453125, -12)"><rect/><foreignObject width="108.90625" height="24"><div style="color: rgb(17, 17, 17) !important; display: table-cell; white-space: nowrap; line-height: 1.5; max-width: 200px; text-align: center;" xmlns="http://www.w3.org/1999/xhtml"><span style="color:#111 !important" class="nodeLabel"><p>Dev-*（緑）: 実装</p></span></div></foreignObject></g></g><g class="node default doc" id="my-svg-flowchart-lc-6" data-look="classic" transform="translate(152.7265625, 329.453125)"><polygon points="93.453125,0 186.90625,-93.453125 93.453125,-186.90625 0,-93.453125" class="label-container" transform="translate(-92.953125, 93.453125)" style="fill:#9B59B6 !important;stroke:#4a235a !important"/><g class="label" style="color:#fff !important" transform="translate(-66.453125, -12)"><rect/><foreignObject width="132.90625" height="24"><div style="color: rgb(255, 255, 255) !important; display: table-cell; white-space: nowrap; line-height: 1.5; max-width: 200px; text-align: center;" xmlns="http://www.w3.org/1999/xhtml"><span style="color:#fff !important" class="nodeLabel"><p>Doc-*（紫）: 文書生成</p></span></div></foreignObject></g></g><g class="node default qa" id="my-svg-flowchart-lq-7" data-look="classic" transform="translate(152.7265625, 492.40625)"><polygon points="9.75,0 152.3125,0 162.0625,-19.5 152.3125,-39 9.75,-39 0,-19.5" class="label-container" transform="translate(-81.03125,19.5)" style="fill:#E67E22 !important;stroke:#7e3d00 !important"/><g class="label" style="color:#111 !important" transform="translate(-63.78125, -12)"><rect/><foreignObject width="127.5625" height="24"><div style="color: rgb(17, 17, 17) !important; display: table-cell; white-space: nowrap; line-height: 1.5; max-width: 200px; text-align: center;" xmlns="http://www.w3.org/1999/xhtml"><span style="color:#111 !important" class="nodeLabel"><p>QA-*（橙）: 品質確認</p></span></div></foreignObject></g></g><g class="node default km" id="my-svg-flowchart-lk-8" data-look="classic" transform="translate(152.7265625, 581.40625)"><polygon points="0,0 193.328125,0 193.328125,-39 0,-39 0,0 -8,0 201.328125,0 201.328125,-39 -8,-39 -8,0" class="label-container" transform="translate(-96.6640625,19.5)" style="fill:#F39C12 !important;stroke:#7a4f00 !important;stroke-width:3px !important"/><g class="label" style="color:#111 !important" transform="translate(-89.1640625, -12)"><rect/><foreignObject width="178.328125" height="24"><div style="color: rgb(17, 17, 17) !important; display: table-cell; white-space: nowrap; line-height: 1.5; max-width: 200px; text-align: center;" xmlns="http://www.w3.org/1999/xhtml"><span style="color:#111 !important" class="nodeLabel"><p>KnowledgeManager（金）</p></span></div></foreignObject></g></g><g class="node default file" id="my-svg-flowchart-lf-9" data-look="classic" transform="translate(152.7265625, 670.40625)"><polygon points="-19.5,0 175.453125,0 194.953125,-39 0,-39" class="label-container" transform="translate(-87.7265625,19.5)" style="fill:#95A5A6 !important;stroke:#5d6d73 !important"/><g class="label" style="color:#111 !important" transform="translate(-80.2265625, -12)"><rect/><foreignObject width="160.453125" height="24"><div style="color: rgb(17, 17, 17) !important; display: table-cell; white-space: nowrap; line-height: 1.5; max-width: 200px; text-align: center;" xmlns="http://www.w3.org/1999/xhtml"><span style="color:#111 !important" class="nodeLabel"><p>ファイル/ディレクトリ（灰）</p></span></div></foreignObject></g></g></g></g><g class="node default km" id="my-svg-flowchart-s1-0" data-look="classic" transform="translate(445.234375, 366.453125)"><polygon points="0,0 179.5625,0 179.5625,-39 0,-39 0,0 -8,0 187.5625,0 187.5625,-39 -8,-39 -8,0" class="label-container" transform="translate(-89.78125,19.5)" style="fill:#F39C12 !important;stroke:#7a4f00 !important;stroke-width:3px !important"/><g class="label" style="color:#111 !important" transform="translate(-82.28125, -12)"><rect/><foreignObject width="164.5625" height="24"><div style="color: rgb(17, 17, 17) !important; display: table-cell; white-space: nowrap; line-height: 1.5; max-width: 200px; text-align: center;" xmlns="http://www.w3.org/1999/xhtml"><span style="color:#111 !important" class="nodeLabel"><p>KnowledgeManager [1]</p></span></div></foreignObject></g></g><g class="node default file" id="my-svg-flowchart-kn-2" data-look="classic" transform="translate(445.234375, 818.40625)"><polygon points="-19.5,0 95.953125,0 115.453125,-39 0,-39" class="label-container" transform="translate(-47.9765625,19.5)" style="fill:#95A5A6 !important;stroke:#5d6d73 !important"/><g class="label" style="color:#111 !important" transform="translate(-40.4765625, -12)"><rect/><foreignObject width="80.953125" height="24"><div style="color: rgb(17, 17, 17) !important; display: table-cell; white-space: nowrap; line-height: 1.5; max-width: 200px; text-align: center;" xmlns="http://www.w3.org/1999/xhtml"><span style="color:#111 !important" class="nodeLabel"><p>knowledge/</p></span></div></foreignObject></g></g></g></g></g><defs><filter id="my-svg-drop-shadow" height="130%" width="130%"><feDropShadow dx="4" dy="4" stdDeviation="0" flood-opacity="0.06" flood-color="#000000"/></filter></defs><defs><filter id="my-svg-drop-shadow-small" height="150%" width="150%"><feDropShadow dx="2" dy="2" stdDeviation="0" flood-opacity="0.06" flood-color="#000000"/></filter></defs></svg>