<?xml version="1.0" encoding="UTF-8"?>
<svg xmlns="http://www.w3.org/2000/svg" viewBox="0 0 1200 900" font-family="system-ui, -apple-system, sans-serif">
  <title>ドキュメントナビゲーションマップ</title>
  <defs>
    <marker id="arr" markerWidth="8" markerHeight="6" refX="7" refY="3" orient="auto">
      <polygon points="0 0, 8 3, 0 6" fill="#586069"/>
    </marker>
  </defs>
  <rect width="1200" height="900" fill="#f6f8fa"/>
  <text x="600" y="32" text-anchor="middle" font-size="16" font-weight="bold" fill="#24292e">ドキュメントナビゲーションマップ</text>

  <!-- ROOT: README.md -->
  <rect x="20" y="55" width="160" height="50" rx="8" fill="#fff8e6" stroke="#e36209" stroke-width="2.5"/>
  <text x="100" y="77" text-anchor="middle" font-size="12" font-weight="bold" fill="#e36209">README.md</text>
  <text x="100" y="95" text-anchor="middle" font-size="9" fill="#586069">入口・目次</text>

  <!-- Branch line from root -->
  <line x1="180" y1="80" x2="210" y2="80" stroke="#586069" stroke-width="1.5"/>

  <!-- === BRANCH 1: Overview ===-->
  <line x1="210" y1="80" x2="210" y2="170" stroke="#e1e4e8" stroke-width="1.5"/>

  <!-- overview.md -->
  <line x1="210" y1="80" x2="240" y2="80" stroke="#586069" stroke-width="1.5" marker-end="url(#arr)"/>
  <rect x="242" y="58" width="185" height="44" rx="6" fill="#e8f0fe" stroke="#0366d6" stroke-width="1.5"/>
  <text x="334" y="77" text-anchor="middle" font-size="11" font-weight="bold" fill="#0366d6">overview.md</text>
  <text x="334" y="93" text-anchor="middle" font-size="9" fill="#586069">全体像・3つの使い方</text>

  <!-- overview sub-pages -->
  <line x1="427" y1="80" x2="460" y2="80" stroke="#e1e4e8" stroke-width="1"/>
  <line x1="460" y1="60" x2="460" y2="170" stroke="#e1e4e8" stroke-width="1"/>

  <line x1="460" y1="68" x2="478" y2="68" stroke="#586069" stroke-width="1" marker-end="url(#arr)"/>
  <rect x="480" y="50" width="195" height="36" rx="6" fill="#e8f0fe" stroke="#0366d6" stroke-width="1.5"/>
  <text x="578" y="66" text-anchor="middle" font-size="10" font-weight="bold" fill="#0366d6">getting-started.md</text>
  <text x="578" y="79" text-anchor="middle" font-size="9" fill="#586069">初期セットアップ手順</text>

  <line x1="460" y1="98" x2="478" y2="98" stroke="#586069" stroke-width="1" marker-end="url(#arr)"/>
  <rect x="480" y="88" width="195" height="36" rx="6" fill="#e8f0fe" stroke="#0366d6" stroke-width="1.5"/>
  <text x="578" y="104" text-anchor="middle" font-size="10" font-weight="bold" fill="#0366d6">web-ui-guide.md</text>
  <text x="578" y="117" text-anchor="middle" font-size="9" fill="#586069">方式1/2: Web UI ガイド</text>

  <line x1="460" y1="140" x2="478" y2="140" stroke="#586069" stroke-width="1" marker-end="url(#arr)"/>
  <rect x="480" y="128" width="195" height="36" rx="6" fill="#e8f0fe" stroke="#0366d6" stroke-width="1.5"/>
  <text x="578" y="144" text-anchor="middle" font-size="10" font-weight="bold" fill="#0366d6">hve-app-guide.md</text>
  <text x="578" y="157" text-anchor="middle" font-size="9" fill="#586069">方式3: ローカル hve アプリ</text>

  <line x1="460" y1="168" x2="478" y2="168" stroke="#586069" stroke-width="1" marker-end="url(#arr)"/>
  <rect x="480" y="158" width="195" height="28" rx="6" fill="#e8f0fe" stroke="#0366d6" stroke-width="1.5"/>
  <text x="578" y="170" text-anchor="middle" font-size="10" font-weight="bold" fill="#0366d6">workflow-reference.md</text>
  <text x="578" y="181" text-anchor="middle" font-size="9" fill="#586069">ワークフローリファレンス</text>

  <!-- === BRANCH 2: Phase Guides ===-->
  <line x1="210" y1="250" x2="240" y2="250" stroke="#586069" stroke-width="1.5" marker-end="url(#arr)"/>
  <rect x="242" y="228" width="185" height="44" rx="6" fill="#e8d5f5" stroke="#6f42c1" stroke-width="1.5"/>
  <text x="334" y="247" text-anchor="middle" font-size="11" font-weight="bold" fill="#6f42c1">フェーズ別ガイド</text>
  <text x="334" y="263" text-anchor="middle" font-size="9" fill="#586069">01〜08 設計・実装ガイド</text>

  <!-- Phase guides sub-pages -->
  <line x1="427" y1="250" x2="460" y2="250" stroke="#e1e4e8" stroke-width="1"/>
  <line x1="460" y1="218" x2="460" y2="540" stroke="#e1e4e8" stroke-width="1"/>

  <line x1="460" y1="225" x2="478" y2="225" stroke="#586069" stroke-width="1" marker-end="url(#arr)"/>
  <rect x="480" y="213" width="210" height="28" rx="6" fill="#e8d5f5" stroke="#6f42c1" stroke-width="1.5"/>
  <text x="585" y="225" text-anchor="middle" font-size="10" font-weight="bold" fill="#6f42c1">01-business-requirement.md</text>
  <text x="585" y="236" text-anchor="middle" font-size="9" fill="#586069">要求定義 (AQOD/AKM)</text>

  <line x1="460" y1="255" x2="478" y2="255" stroke="#586069" stroke-width="1" marker-end="url(#arr)"/>
  <rect x="480" y="243" width="210" height="28" rx="6" fill="#e8d5f5" stroke="#6f42c1" stroke-width="1.5"/>
  <text x="585" y="255" text-anchor="middle" font-size="10" font-weight="bold" fill="#6f42c1">02-app-architecture-design.md</text>
  <text x="585" y="266" text-anchor="middle" font-size="9" fill="#586069">AAS アーキテクチャ設計</text>

  <line x1="460" y1="285" x2="478" y2="285" stroke="#586069" stroke-width="1" marker-end="url(#arr)"/>
  <rect x="480" y="273" width="210" height="28" rx="6" fill="#e8d5f5" stroke="#6f42c1" stroke-width="1.5"/>
  <text x="585" y="285" text-anchor="middle" font-size="10" font-weight="bold" fill="#6f42c1">03-app-design-microservice-azure.md</text>
  <text x="585" y="296" text-anchor="middle" font-size="9" fill="#586069">AAD-WEB Web 詳細設計</text>

  <line x1="460" y1="315" x2="478" y2="315" stroke="#586069" stroke-width="1" marker-end="url(#arr)"/>
  <rect x="480" y="303" width="210" height="28" rx="6" fill="#e8d5f5" stroke="#6f42c1" stroke-width="1.5"/>
  <text x="585" y="315" text-anchor="middle" font-size="10" font-weight="bold" fill="#6f42c1">04-app-design-batch.md</text>
  <text x="585" y="326" text-anchor="middle" font-size="9" fill="#586069">ABD バッチ設計</text>

  <line x1="460" y1="345" x2="478" y2="345" stroke="#586069" stroke-width="1" marker-end="url(#arr)"/>
  <rect x="480" y="333" width="210" height="28" rx="6" fill="#e8d5f5" stroke="#6f42c1" stroke-width="1.5"/>
  <text x="585" y="345" text-anchor="middle" font-size="10" font-weight="bold" fill="#6f42c1">05-app-dev-microservice-azure.md</text>
  <text x="585" y="356" text-anchor="middle" font-size="9" fill="#586069">ASDW-WEB 実装・デプロイ</text>

  <line x1="460" y1="375" x2="478" y2="375" stroke="#586069" stroke-width="1" marker-end="url(#arr)"/>
  <rect x="480" y="363" width="210" height="28" rx="6" fill="#e8d5f5" stroke="#6f42c1" stroke-width="1.5"/>
  <text x="585" y="375" text-anchor="middle" font-size="10" font-weight="bold" fill="#6f42c1">06-app-dev-batch-azure.md</text>
  <text x="585" y="386" text-anchor="middle" font-size="9" fill="#586069">ABDV バッチ実装・デプロイ</text>

  <line x1="460" y1="405" x2="478" y2="405" stroke="#586069" stroke-width="1" marker-end="url(#arr)"/>
  <rect x="480" y="393" width="210" height="28" rx="6" fill="#e8d5f5" stroke="#6f42c1" stroke-width="1.5"/>
  <text x="585" y="405" text-anchor="middle" font-size="10" font-weight="bold" fill="#6f42c1">07-ai-agent-simple.md</text>
  <text x="585" y="416" text-anchor="middle" font-size="9" fill="#586069">AAG AI Agent（クイック）</text>

  <line x1="460" y1="435" x2="478" y2="435" stroke="#586069" stroke-width="1" marker-end="url(#arr)"/>
  <rect x="480" y="423" width="210" height="28" rx="6" fill="#e8d5f5" stroke="#6f42c1" stroke-width="1.5"/>
  <text x="585" y="435" text-anchor="middle" font-size="10" font-weight="bold" fill="#6f42c1">08-ai-agent.md</text>
  <text x="585" y="446" text-anchor="middle" font-size="9" fill="#586069">AAGD AI Agent（本格）</text>

  <!-- === BRANCH 3: Supplement Guides ===-->
  <line x1="210" y1="420" x2="240" y2="420" stroke="#586069" stroke-width="1.5" marker-end="url(#arr)"/>
  <rect x="242" y="398" width="185" height="44" rx="6" fill="#d4edda" stroke="#28a745" stroke-width="1.5"/>
  <text x="334" y="417" text-anchor="middle" font-size="11" font-weight="bold" fill="#28a745">補助ガイド</text>
  <text x="334" y="433" text-anchor="middle" font-size="9" fill="#586069">AKM/AQOD/ADOC 等</text>

  <!-- Supplement sub-pages -->
  <line x1="427" y1="420" x2="460" y2="420" stroke="#e1e4e8" stroke-width="1"/>
  <line x1="460" y1="468" x2="460" y2="670" stroke="#e1e4e8" stroke-width="1"/>

  <line x1="460" y1="475" x2="478" y2="475" stroke="#586069" stroke-width="1" marker-end="url(#arr)"/>
  <rect x="480" y="463" width="195" height="28" rx="6" fill="#d4edda" stroke="#28a745" stroke-width="1.5"/>
  <text x="578" y="475" text-anchor="middle" font-size="10" font-weight="bold" fill="#28a745">km-guide.md</text>
  <text x="578" y="486" text-anchor="middle" font-size="9" fill="#586069">AKM knowledge/ 管理ガイド</text>

  <line x1="460" y1="505" x2="478" y2="505" stroke="#586069" stroke-width="1" marker-end="url(#arr)"/>
  <rect x="480" y="493" width="195" height="28" rx="6" fill="#d4edda" stroke="#28a745" stroke-width="1.5"/>
  <text x="578" y="505" text-anchor="middle" font-size="10" font-weight="bold" fill="#28a745">original-docs-review.md</text>
  <text x="578" y="516" text-anchor="middle" font-size="9" fill="#586069">AQOD 原本レビューガイド</text>

  <line x1="460" y1="535" x2="478" y2="535" stroke="#586069" stroke-width="1" marker-end="url(#arr)"/>
  <rect x="480" y="523" width="195" height="28" rx="6" fill="#d4edda" stroke="#28a745" stroke-width="1.5"/>
  <text x="578" y="535" text-anchor="middle" font-size="10" font-weight="bold" fill="#28a745">sourcecode-documentation.md</text>
  <text x="578" y="546" text-anchor="middle" font-size="9" fill="#586069">ADOC ソースコード文書化</text>

  <line x1="460" y1="565" x2="478" y2="565" stroke="#586069" stroke-width="1" marker-end="url(#arr)"/>
  <rect x="480" y="553" width="195" height="28" rx="6" fill="#d4edda" stroke="#28a745" stroke-width="1.5"/>
  <text x="578" y="565" text-anchor="middle" font-size="10" font-weight="bold" fill="#28a745">prompt-examples.md</text>
  <text x="578" y="576" text-anchor="middle" font-size="9" fill="#586069">プロンプト例集</text>

  <line x1="460" y1="595" x2="478" y2="595" stroke="#586069" stroke-width="1" marker-end="url(#arr)"/>
  <rect x="480" y="583" width="195" height="28" rx="6" fill="#d4edda" stroke="#28a745" stroke-width="1.5"/>
  <text x="578" y="595" text-anchor="middle" font-size="10" font-weight="bold" fill="#28a745">troubleshooting.md</text>
  <text x="578" y="606" text-anchor="middle" font-size="9" fill="#586069">トラブルシューティング</text>

  <!-- Root vertical connector -->
  <line x1="100" y1="105" x2="100" y2="420" stroke="#e1e4e8" stroke-width="1.5"/>
  <line x1="100" y1="250" x2="210" y2="250" stroke="#e1e4e8" stroke-width="1.5"/>
  <line x1="100" y1="420" x2="210" y2="420" stroke="#e1e4e8" stroke-width="1.5"/>

  <!-- Legend -->
  <rect x="720" y="530" width="280" height="120" rx="8" fill="white" stroke="#e1e4e8" stroke-width="1"/>
  <text x="860" y="552" text-anchor="middle" font-size="12" font-weight="bold" fill="#24292e">凡例</text>
  <rect x="734" y="562" width="14" height="14" rx="3" fill="#fff8e6" stroke="#e36209" stroke-width="1.5"/>
  <text x="754" y="574" font-size="10" fill="#24292e">エントリーポイント</text>
  <rect x="734" y="582" width="14" height="14" rx="3" fill="#e8f0fe" stroke="#0366d6" stroke-width="1.5"/>
  <text x="754" y="594" font-size="10" fill="#24292e">概要・利用ガイド</text>
  <rect x="734" y="602" width="14" height="14" rx="3" fill="#e8d5f5" stroke="#6f42c1" stroke-width="1.5"/>
  <text x="754" y="614" font-size="10" fill="#24292e">フェーズ別ガイド</text>
  <rect x="734" y="622" width="14" height="14" rx="3" fill="#d4edda" stroke="#28a745" stroke-width="1.5"/>
  <text x="754" y="634" font-size="10" fill="#24292e">補助ガイド</text>
</svg>
