<?xml version="1.0" encoding="UTF-8"?>
<svg xmlns="http://www.w3.org/2000/svg" viewBox="0 0 1080 560" font-family="Segoe UI, Hiragino Kaku Gothic ProN, sans-serif" font-size="13">
  <defs>
    <marker id="arr" viewBox="0 0 10 10" refX="9" refY="5" markerWidth="7" markerHeight="7" orient="auto-start-reverse">
      <path d="M0,0 L10,5 L0,10 z" fill="#444"/>
    </marker>
    <style>
      .title { font-size: 18px; font-weight: bold; }
      .h    { font-size: 14px; font-weight: bold; }
      .box  { fill: #fff; stroke: #444; stroke-width: 1.2; }
      .hve  { fill: #eaf6ee; stroke: #1a7f37; }
      .cli  { fill: #fbe9e7; stroke: #b91c1c; }
      .os   { fill: #e8f1fb; stroke: #1f6feb; }
      .mcp  { fill: #f8eaf6; stroke: #8250df; }
      .arr  { stroke: #444; stroke-width: 1.4; fill: none; marker-end: url(#arr); }
      .deny { stroke: #c00; stroke-width: 2; stroke-dasharray: 6 4; fill: none; }
      .note { font-size: 12px; fill: #333; }
    </style>
  </defs>

  <text class="title" x="20" y="30">認証・資格情報の取扱い: 各 CLI と OS 認証ストアへ委譲</text>

  <!-- HVE -->
  <rect class="box hve" x="30" y="60" width="320" height="180" rx="6"/>
  <text class="h" x="50" y="84">HVE（CLI / GUI / Prompt 利用面）</text>
  <text x="50" y="106" class="note">資格情報をディスクへ永続保存しない</text>
  <text x="50" y="128" class="note">- Copilot: `copilot login` / CLI 対話へ委譲</text>
  <text x="50" y="148" class="note">- GitHub: `gh auth token`、明示操作で `gh auth login`</text>
  <text x="50" y="168" class="note">- Work IQ: 専用 CLI で EULA / M365 認証確認</text>
  <text x="50" y="190" class="note">- MCP / Plugin: Copilot CLI の設定・手順へ委譲</text>
  <text x="50" y="212" class="note">- Prompt 版は利用中の Copilot 環境の認証を再利用</text>

  <!-- External authentication CLIs -->
  <rect class="box cli" x="400" y="60" width="320" height="180" rx="6"/>
  <text class="h" x="420" y="84">外部 CLI（認証の正本）</text>
  <text x="420" y="106" class="note">Copilot CLI: login / MCP / Plugin</text>
  <text x="420" y="128" class="note">GitHub CLI: gh auth login / token</text>
  <text x="420" y="148" class="note">Work IQ CLI: EULA / Microsoft 365 認証</text>
  <text x="420" y="170" class="note">各 CLI が認証フローと更新を担当</text>
  <text x="420" y="200" class="note">HVE は公開 CLI/API の結果だけを利用</text>

  <!-- OS Credential Store -->
  <rect class="box os" x="770" y="60" width="280" height="180" rx="6"/>
  <text class="h" x="790" y="84">OS 認証ストア</text>
  <text x="790" y="106" class="note">Windows: Credential Manager</text>
  <text x="790" y="128" class="note">macOS: Keychain</text>
  <text x="790" y="148" class="note">Linux: Secret Service (libsecret)</text>
  <text x="790" y="180" class="note">プロセス分離 + OS 権限管理</text>
  <text x="790" y="202" class="note">HVE プロセスから直接アクセス不可</text>

  <!-- MCP / Plugin -->
  <rect class="box mcp" x="30" y="290" width="500" height="160" rx="6"/>
  <text class="h" x="50" y="314">MCP Server / Plugin（任意の外部サービス）</text>
  <text x="50" y="336" class="note">azure-mcp / github / workiq / 自作 MCP</text>
  <text x="50" y="356" class="note">各サーバが固有の認証フロー（OAuth / API Key / Device Code）</text>
  <text x="50" y="376" class="note">認証方式と保存先は各 CLI / MCP Server の仕様に従う</text>
  <text x="50" y="398" class="note">HVE は MCP Server に直接接続せず、Copilot CLI 経由で利用</text>
  <text x="50" y="420" class="note">GUI は一覧と認証手順を示し、独自 OAuth を実装しない</text>

  <!-- Notes / forbidden -->
  <rect class="box" x="560" y="290" width="490" height="160" rx="6"/>
  <text class="h" x="580" y="314">禁止事項（疎結合維持のため）</text>
  <text x="580" y="336" class="note">✗ HVE のディスクへ資格情報を永続保存</text>
  <text x="580" y="356" class="note">✗ Copilot CLI の認証ファイルを直接読む</text>
  <text x="580" y="376" class="note">✗ MCP Server へ HVE が直接 HTTP 接続</text>
  <text x="580" y="396" class="note">✗ GUI 設定や request に平文クレデンシャルを記載</text>
  <text x="580" y="418" class="note">✓ 認証 UI / KPI / 再開機構の追加は自由（資格情報を扱わない範囲で）</text>

  <text x="30" y="490" class="note">▶ ゾーン C（Copilot CLI 管理リソース）への接続は全て Copilot CLI 経由。HVE は「呼び出し」と「結果の受け取り」だけを行う。</text>
  <text x="30" y="510" class="note">▶ Copilot / GitHub / Work IQ / MCP の認証は各 CLI の正本に従う。Cloud Agent Orchestrator は Coding Agent 側の権限を使う。</text>
  <text x="30" y="530" class="note">▶ 詳細運用手順: users-guide/plugin-mcp-auth.md（操作 / トラブルシュート）</text>

  <!-- Arrows -->
  <path class="arr" d="M350,140 L400,140"/>
  <path class="arr" d="M720,140 L770,140"/>
  <path class="arr" d="M280,370 L560,370"/>
  <path class="arr" d="M560,140 L560,290"/>

  <line class="deny" x1="190" y1="240" x2="190" y2="290"/>
  <text x="200" y="280" class="note" fill="#c00">直接書込 禁止</text>
  <line class="deny" x1="910" y1="240" x2="910" y2="290"/>
  <text x="780" y="280" class="note" fill="#c00">HVE→OS ストア 直接読書き 禁止</text>
</svg>
