<?xml version="1.0" encoding="UTF-8"?>
<!-- シンプルなフォルダーアイコン。本リポジトリ独自作成。 -->
<svg xmlns="http://www.w3.org/2000/svg" width="16" height="16" viewBox="0 0 16 16" fill="none">
  <path d="M1 3.5A1.5 1.5 0 0 1 2.5 2h3l1.5 1.5h6.5A1.5 1.5 0 0 1 15 5v7.5A1.5 1.5 0 0 1 13.5 14h-11A1.5 1.5 0 0 1 1 12.5v-9z" fill="#dcb67a" stroke="#806237" stroke-width="0.5"/>
</svg>
<svg xmlns="http://www.w3.org/2000/svg" width="16" height="16" viewBox="0 0 16 16" fill="none">
  <path d="M1 3.5A1.5 1.5 0 0 1 2.5 2h3l1.5 1.5h6.5A1.5 1.5 0 0 1 15 5v7.5A1.5 1.5 0 0 1 13.5 14h-11A1.5 1.5 0 0 1 1 12.5v-9z" fill="#dcb67a" stroke="#806237" stroke-width="0.5"/>
</svg>
