<?xml version="1.0" encoding="UTF-8"?>
<svg xmlns="http://www.w3.org/2000/svg" viewBox="0 0 24 24" fill="none" stroke="currentColor" stroke-width="1.8" stroke-linecap="round" stroke-linejoin="round">
  <path d="M19.14 12.94a7.94 7.94 0 0 0 .05-1.88l2.03-1.58a.5.5 0 0 0 .12-.64l-1.92-3.32a.5.5 0 0 0-.6-.22l-2.39.96a7.9 7.9 0 0 0-1.62-.94l-.36-2.54A.5.5 0 0 0 13.96 2h-3.84a.5.5 0 0 0-.49.42l-.36 2.54a7.9 7.9 0 0 0-1.62.94l-2.39-.96a.5.5 0 0 0-.6.22L2.74 8.48a.5.5 0 0 0 .12.64l2.03 1.58a7.94 7.94 0 0 0 0 1.88l-2.03 1.58a.5.5 0 0 0-.12.64l1.92 3.32a.5.5 0 0 0 .6.22l2.39-.96c.5.38 1.04.7 1.62.94l.36 2.54a.5.5 0 0 0 .49.42h3.84a.5.5 0 0 0 .49-.42l.36-2.54a7.9 7.9 0 0 0 1.62-.94l2.39.96a.5.5 0 0 0 .6-.22l1.92-3.32a.5.5 0 0 0-.12-.64z"/>
  <circle cx="12" cy="12" r="3.2"/>
</svg>
